<?xml version="1.0" standalone="no"?>
<!DOCTYPE svg PUBLIC "-//W3C//DTD SVG 20010904//EN"
 "http://www.w3.org/TR/2001/REC-SVG-20010904/DTD/svg10.dtd">
<svg version="1.0" xmlns="http://www.w3.org/2000/svg"
 width="1024.000000pt" height="1024.000000pt" viewBox="0 0 1024.000000 1024.000000"
 preserveAspectRatio="xMidYMid meet">

<g transform="translate(0.000000,1024.000000) scale(0.100000,-0.100000)"
fill="#000000" stroke="none">
<path d="M1729 8599 c-19 -3 -44 -10 -55 -17 -29 -16 -57 -78 -49 -109 3 -14
3 -108 -1 -208 l-7 -183 -72 -4 c-59 -4 -90 -13 -163 -48 -50 -24 -106 -59
-126 -79 -65 -67 -66 -75 -65 -791 1 -349 4 -695 8 -768 l6 -132 -35 -6 c-73
-12 -194 -45 -230 -64 -108 -55 -138 -108 -146 -257 -11 -216 -9 -234 25 -265
31 -28 32 -28 183 -28 l151 0 -9 -217 c-5 -120 -9 -348 -9 -508 l0 -290 -31
-55 c-40 -69 -51 -105 -64 -205 -5 -44 -17 -118 -25 -165 -21 -110 -23 -253
-6 -305 30 -90 104 -147 194 -150 64 -2 72 -12 58 -72 -7 -27 -13 -74 -14
-105 -4 -100 -50 -70 673 -442 692 -357 1245 -635 1315 -662 54 -21 88 -27
150 -28 85 -1 116 8 2062 610 221 68 404 124 407 124 3 0 -8 -30 -25 -66 -16
-37 -56 -148 -90 -248 -97 -290 -83 -262 -132 -269 -23 -3 -106 -26 -184 -52
-101 -32 -150 -53 -172 -74 -53 -50 -45 -69 79 -195 87 -90 108 -117 103 -134
-6 -26 32 -109 57 -122 21 -11 70 -13 70 -3 0 3 -8 15 -17 25 -15 16 -15 23
-4 51 38 98 220 588 231 622 7 22 42 119 77 215 67 180 121 285 151 294 167
46 284 90 312 116 31 29 32 30 30 117 -2 49 1 105 5 126 7 32 4 42 -16 63 -32
35 -55 46 -339 162 -135 56 -348 144 -475 197 -357 150 -397 166 -601 244
-202 77 -254 102 -254 124 0 16 76 32 620 131 195 36 531 99 745 139 504 96
464 91 471 63 3 -13 4 -37 2 -52 -3 -27 -6 -29 -40 -26 -65 6 -78 -9 -78 -86
0 -39 5 -75 13 -85 6 -9 37 -25 67 -35 l55 -19 9 -53 c7 -37 6 -58 -2 -71 -7
-10 -12 -44 -12 -74 0 -63 1 -62 -85 -73 l-60 -8 2 -37 c2 -26 -4 -44 -17 -57
-23 -23 -25 -55 -7 -86 12 -22 893 -472 1003 -513 77 -30 116 -27 350 24 278
61 488 104 873 181 308 60 402 84 281 71 -62 -7 -787 -137 -1071 -192 -323
-63 -300 -61 -388 -29 -70 25 -869 408 -917 439 -14 9 -23 28 -27 57 -4 24 -9
55 -13 71 -5 22 -3 27 12 27 11 0 100 -40 199 -90 99 -49 321 -153 493 -230
l314 -142 96 11 c54 6 201 31 327 56 185 37 865 157 1026 182 29 4 41 1 58
-16 l21 -21 0 23 c0 13 -5 28 -11 34 -8 8 -8 32 0 84 19 136 21 206 7 219 -10
8 -38 8 -102 0 -49 -5 -251 -28 -449 -51 -198 -22 -491 -58 -652 -79 -264 -36
-295 -38 -320 -25 -15 8 -31 15 -36 15 -4 0 -58 23 -120 51 -92 42 -239 99
-254 99 -23 0 41 -37 204 -117 l196 -96 331 42 c182 23 469 57 638 76 168 19
354 42 412 52 125 20 133 16 142 -63 7 -67 -2 -77 -70 -75 -31 0 -121 -8 -199
-19 -78 -11 -223 -29 -322 -40 -146 -17 -486 -72 -820 -131 -27 -5 -59 -6 -70
-3 -32 10 -859 424 -872 437 -17 17 -29 97 -14 97 7 0 85 -29 175 -65 158 -63
201 -76 180 -55 -6 6 -122 58 -259 116 -138 58 -253 111 -257 117 -12 18 -9
125 3 133 6 3 37 -8 69 -24 32 -17 152 -69 267 -116 114 -46 269 -109 343
-139 151 -62 190 -74 190 -59 0 11 -239 115 -543 236 -97 40 -186 79 -197 89
-17 14 -20 29 -20 97 0 44 3 80 6 80 4 0 102 -42 218 -94 116 -52 290 -124
386 -161 96 -37 188 -73 203 -81 24 -11 39 -11 105 1 154 28 983 141 1219 166
115 12 130 11 125 -5 -6 -18 8 -56 21 -56 13 0 36 97 29 119 -6 17 -40 13 -50
-5 -7 -13 -34 -19 -113 -25 -212 -18 -890 -108 -1133 -150 -75 -14 -136 -19
-165 -15 -25 3 -102 33 -171 65 -69 33 -162 76 -208 95 -145 62 -396 179 -434
203 -35 22 -39 22 -80 7 -24 -8 -135 -31 -248 -49 -278 -46 -1056 -189 -1495
-274 -304 -59 -755 -141 -776 -141 -4 0 -3 19 2 43 4 23 8 78 9 122 0 44 4 85
8 91 12 17 34 23 320 80 160 32 302 66 345 83 76 30 116 34 557 61 274 17 887
59 975 67 44 4 100 6 125 5 25 -2 65 3 90 11 58 19 140 27 324 29 l149 2 22
-28 c19 -24 26 -27 59 -21 20 4 47 16 60 26 22 17 30 18 75 8 31 -6 111 -9
201 -6 176 6 174 7 209 -113 39 -133 87 -180 182 -180 66 0 122 38 153 104 14
30 26 59 26 65 0 26 43 121 55 121 7 0 44 -11 82 -24 37 -13 167 -59 288 -101
275 -97 305 -106 305 -95 0 8 -116 59 -170 75 -71 21 -457 179 -472 194 -17
16 -16 19 16 67 19 28 41 67 49 87 16 38 39 53 129 87 96 36 178 126 178 196
0 41 -29 91 -73 130 -85 72 -279 102 -413 64 -125 -36 -142 -27 -175 91 -24
87 -49 130 -94 165 -45 34 -95 41 -151 19 -91 -35 -138 -92 -204 -252 -23 -54
-45 -102 -51 -107 -11 -12 -11 451 1 1854 6 716 5 1060 -2 1094 -7 31 -22 62
-43 85 l-33 36 -2670 5 c-1468 3 -2684 2 -2703 -1z m5359 -79 c12 -12 22 -23
22 -25 0 -3 -1220 -5 -2711 -5 -2164 0 -2710 3 -2707 13 13 37 -32 37 2714 37
l2660 0 22 -20z m-7 -92 c13 -11 14 -62 8 -393 -4 -209 -10 -888 -14 -1510 -5
-870 -9 -1132 -18 -1139 -14 -9 -69 13 -107 44 -34 27 -54 19 -85 -35 -46 -78
-30 -194 43 -314 l31 -50 -27 -5 c-45 -9 -473 -35 -927 -56 -734 -34 -1037
-50 -1112 -56 -73 -6 -89 0 -59 25 21 18 25 112 31 776 3 330 8 782 12 1005
l6 406 -40 42 c-35 36 -45 42 -82 42 -70 0 -504 -40 -531 -49 -14 -5 -65 -9
-115 -10 -49 -1 -186 -11 -304 -21 -118 -11 -227 -20 -243 -20 l-28 0 0 149 0
148 46 7 c63 8 134 8 135 -1 1 -5 3 -52 5 -107 1 -55 7 -103 14 -110 20 -20
28 12 29 117 1 56 3 102 4 103 1 1 172 5 380 9 l377 7 0 -80 c0 -87 14 -142
31 -125 6 6 13 53 16 105 l6 95 256 6 c255 5 295 9 288 31 -4 13 -997 16
-1359 3 l-228 -8 0 103 0 103 748 -3 c411 -1 765 1 786 5 43 9 57 27 30 37
-23 9 -1268 8 -1435 0 l-126 -7 -5 154 c-6 233 -12 238 -316 247 l-192 5 7 36
c13 65 10 105 -9 109 -16 3 -18 -5 -18 -67 0 -38 -3 -72 -7 -74 -9 -5 -333
-13 -914 -23 l-376 -7 -6 24 c-9 31 -9 223 -1 282 6 45 7 46 48 50 22 2 1232
4 2687 5 2103 2 2648 -1 2660 -10z m-3688 -442 c18 -19 27 -297 27 -872 0
-375 -2 -433 -15 -438 -8 -3 -15 -1 -15 4 0 5 -6 7 -14 4 -9 -3 -20 4 -27 18
-15 26 -15 28 -17 127 -2 65 -4 72 -17 61 -9 -7 -18 -10 -22 -6 -3 3 -1 6 6 6
7 0 9 5 5 13 -4 6 -4 9 1 5 4 -4 14 -3 22 3 15 13 18 33 3 24 -6 -4 -7 2 -2
17 10 29 7 231 -3 248 -5 7 -4 11 1 8 5 -4 9 59 9 148 l0 154 -141 -1 c-115 0
-143 -3 -148 -14 -3 -8 0 -15 6 -15 6 0 8 -3 5 -6 -4 -4 -13 -2 -21 5 -11 9
-15 9 -19 -1 -2 -7 -8 -9 -13 -5 -10 9 16 28 28 21 4 -3 8 0 8 5 0 13 -20 14
-39 2 -16 -10 -22 -49 -9 -57 4 -3 8 -1 8 4 0 5 7 9 15 9 8 0 12 -4 9 -9 -3
-4 1 -8 9 -8 7 0 14 -7 14 -15 0 -8 -4 -12 -9 -9 -5 3 -6 -7 -2 -23 4 -16 3
-25 -2 -20 -9 9 -10 13 -13 42 0 8 -6 15 -11 15 -7 0 -7 -6 0 -20 6 -11 9 -20
6 -20 -3 0 2 -16 10 -35 7 -19 14 -40 14 -47 -1 -7 -11 12 -24 42 -13 31 -35
74 -50 97 -16 24 -25 47 -20 54 4 7 3 9 -4 5 -6 -4 -21 7 -34 25 -34 47 -146
136 -207 166 -42 21 -76 28 -155 34 -116 9 -198 -1 -306 -37 -96 -32 -168 -79
-252 -165 -36 -38 -72 -69 -80 -70 -9 0 -9 -2 -1 -5 7 -3 9 -12 6 -20 -3 -7
-9 -11 -14 -8 -5 3 -6 -3 -2 -12 5 -13 3 -15 -7 -9 -8 5 -11 4 -6 -3 9 -14
-15 -64 -28 -59 -6 2 -10 13 -9 25 2 12 -5 22 -17 25 -13 3 -18 12 -16 32 l3
27 -61 -6 c-33 -3 -105 -9 -158 -12 l-98 -6 0 236 c0 129 4 246 9 259 5 13 18
27 28 31 10 4 295 14 633 22 338 7 656 15 705 17 50 2 183 4 297 5 166 2 209
-1 221 -12z m-1969 -38 c-4 -18 -8 -419 -8 -891 -1 -962 7 -881 -78 -828 -37
23 -48 37 -53 64 -4 19 -8 372 -8 784 l-2 749 30 59 c21 40 41 64 65 76 52 28
64 25 54 -13z m1170 -270 c169 -28 340 -192 431 -414 14 -33 25 -54 26 -49 1
6 5 -8 9 -30 13 -63 7 -229 -9 -248 -7 -9 -11 -24 -7 -32 3 -9 2 -14 -3 -11
-5 3 -23 -22 -42 -57 -18 -34 -68 -99 -111 -144 -80 -84 -82 -88 -78 -175 1
-27 -1 -48 -5 -48 -3 0 -33 25 -66 57 l-59 56 -58 -14 c-171 -42 -418 18 -562
136 -111 91 -166 203 -176 360 -5 67 -2 94 20 168 45 152 105 244 210 324 84
64 151 92 264 113 115 21 138 22 216 8z m-1031 -316 c-10 -7 -10 -12 1 -27 11
-15 11 -25 3 -44 -11 -23 -12 -22 -22 20 -11 44 -6 59 20 59 6 0 4 -4 -2 -8z
m1742 -1 c-3 -5 -1 -12 5 -16 5 -3 10 -11 10 -16 0 -6 -5 -7 -12 -3 -8 5 -9 0
-6 -14 4 -12 2 -20 -3 -17 -5 4 -7 20 -5 38 6 39 5 37 12 37 3 0 3 -4 -1 -9z
m-1779 -75 c19 -19 18 -28 -6 -49 -22 -19 -25 -15 -10 13 7 13 7 21 0 25 -11
7 -14 25 -4 25 3 0 12 -6 20 -14z m51 -28 c-3 -8 -6 -5 -6 6 -1 11 2 17 5 13
3 -3 4 -12 1 -19z m1480 -20 c-3 -8 -6 -5 -6 6 -1 11 2 17 5 13 3 -3 4 -12 1
-19z m-1240 -120 c-3 -7 -5 -2 -5 12 0 14 2 19 5 13 2 -7 2 -19 0 -25z m1297
16 c3 -8 2 -12 -4 -9 -6 3 -10 1 -10 -5 0 -6 -4 -8 -10 -5 -6 4 -5 11 3 20 15
18 14 18 21 -1z m1651 -16 l28 -21 -7 -921 c-6 -938 -11 -1158 -27 -1188 -6
-11 -32 -22 -71 -29 -80 -16 -109 -42 -106 -99 1 -22 -3 -45 -8 -49 -5 -5
-126 -28 -269 -51 -143 -23 -272 -44 -287 -47 -26 -5 -26 -3 -33 53 -4 33 -15
122 -26 199 -10 77 -21 165 -24 195 -11 108 -26 207 -55 350 -16 80 -34 192
-40 250 -14 131 -55 336 -82 409 -14 37 -39 73 -77 112 -48 49 -64 59 -114 70
l-57 12 2 201 3 201 90 7 c244 20 923 91 945 100 38 14 5 28 -55 23 -27 -3
-104 -9 -170 -15 -66 -6 -178 -18 -250 -25 -197 -22 -459 -45 -516 -45 l-50 0
3 110 c2 88 6 111 18 115 32 9 1053 102 1141 104 54 1 71 -3 94 -21z m-3248
-20 c-3 -7 -5 -2 -5 12 0 14 2 19 5 13 2 -7 2 -19 0 -25z m50 0 c-3 -7 -5 -2
-5 12 0 14 2 19 5 13 2 -7 2 -19 0 -25z m260 -85 c-3 -10 -5 -2 -5 17 0 19 2
27 5 18 2 -10 2 -26 0 -35z m36 -190 c-3 -18 -9 -33 -13 -33 -5 0 -4 15 1 32
5 18 9 35 9 37 0 2 2 2 4 0 2 -2 1 -19 -1 -36z m55 -56 l22 -23 -23 -1 c-15
-2 -18 0 -9 6 11 7 10 9 -2 14 -9 4 -16 11 -16 17 0 15 4 13 28 -13z m1391
-91 c-9 -8 -10 -7 -5 7 3 10 7 31 8 45 1 22 2 21 5 -7 3 -19 -1 -38 -8 -45z
m-1370 -8 l-21 -23 11 23 c7 12 9 33 6 45 l-7 22 17 -22 c15 -21 15 -24 -6
-45z m46 32 c16 -17 16 -20 3 -15 -9 4 -19 13 -22 21 -7 19 -2 18 19 -6z m992
-2 c-3 -8 -6 -5 -6 6 -1 11 2 17 5 13 3 -3 4 -12 1 -19z m-1480 -125 c-2 -27
-3 -5 -3 47 0 52 1 74 3 48 2 -27 2 -69 0 -95z m1455 99 c-6 -2 -10 -9 -8 -15
1 -7 1 -9 -1 -4 -8 13 -21 7 -26 -13 -5 -20 -47 -29 -47 -10 0 9 14 14 33 11
4 0 7 4 7 11 0 6 10 23 23 36 20 21 22 22 26 6 2 -10 -1 -20 -7 -22z m431 -4
c23 -2 27 -7 27 -33 0 -23 -3 -27 -10 -15 -8 12 -10 10 -10 -9 0 -34 -9 -22
-12 17 -2 24 -5 29 -15 20 -10 -8 -13 -6 -13 8 0 15 -2 16 -9 5 -6 -9 -11 -10
-15 -2 -4 6 -3 11 3 11 6 0 8 8 4 18 -5 16 -5 16 8 0 8 -10 26 -19 42 -20z
m-1389 -3 c10 -8 23 -12 27 -9 5 3 6 -2 2 -11 -3 -9 -9 -12 -12 -7 -9 15 -51
25 -51 13 0 -6 -5 -11 -10 -11 -6 0 -5 8 2 20 15 24 17 24 42 5z m1413 -97
c-3 -7 -5 -2 -5 12 0 14 2 19 5 13 2 -7 2 -19 0 -25z m-661 -129 c4 3 4 1 0
-6 -4 -8 2 -15 19 -19 14 -3 25 -9 25 -14 0 -4 10 -12 23 -19 18 -9 18 -11 2
-6 -18 5 -19 4 -3 -8 16 -13 14 -15 -18 -25 -40 -12 -70 -6 -56 12 13 16 8 59
-8 64 -8 3 -10 0 -6 -9 4 -8 1 -6 -7 4 -15 17 -33 24 -23 8 3 -5 -1 -11 -9
-15 -17 -6 -21 9 -4 19 7 5 3 14 -11 27 -15 14 -28 18 -50 13 -22 -5 -30 -3
-30 7 0 10 -13 13 -49 11 -30 -2 -53 2 -59 9 -8 10 8 14 76 16 48 2 89 6 92 8
2 3 24 -15 47 -39 23 -25 45 -42 49 -38z m-86 -11 c0 -4 -4 -8 -9 -8 -6 0 -12
4 -15 8 -3 5 1 9 9 9 8 0 15 -4 15 -9z m-1149 -53 c5 4 10 -15 11 -42 2 -70
-2 -97 -18 -113 -7 -7 -11 22 -11 87 -1 54 1 90 4 80 2 -9 9 -15 14 -12z
m1832 -22 c-7 -2 -19 -2 -25 0 -7 3 -2 5 12 5 14 0 19 -2 13 -5z m-80 -10 c-7
-2 -19 -2 -25 0 -7 3 -2 5 12 5 14 0 19 -2 13 -5z m-443 -39 c0 -2 -11 -4 -25
-4 -14 0 -25 4 -25 9 0 4 11 6 25 3 14 -2 25 -6 25 -8z m777 -40 c51 -38 100
-112 106 -162 4 -26 22 -155 42 -287 169 -1146 183 -1272 150 -1400 -19 -73
-40 -103 -91 -132 -64 -35 -470 -122 -1114 -238 -201 -36 -507 -93 -680 -125
-499 -94 -664 -118 -675 -100 -3 5 10 42 29 82 51 106 68 215 69 437 0 102 -5
224 -11 271 -7 47 -16 153 -22 235 -19 277 -93 882 -130 1060 -23 114 -58 177
-122 221 l-41 29 57 13 c57 12 59 12 149 -25 61 -25 108 -37 139 -37 26 0 44
-4 42 -8 -3 -4 2 -8 11 -8 9 0 13 5 10 10 -3 6 0 10 8 10 8 0 172 16 363 35
192 19 504 48 694 65 389 34 750 68 795 74 17 2 67 3 112 2 66 -1 87 -5 110
-22z m-1422 6 c3 -5 1 -10 -4 -10 -6 0 -11 5 -11 10 0 6 2 10 4 10 3 0 8 -4
11 -10z m73 -17 c-10 -2 -26 -2 -35 0 -10 3 -2 5 17 5 19 0 27 -2 18 -5z
m-271 -19 c-3 -3 -12 -4 -19 -1 -8 3 -5 6 6 6 11 1 17 -2 13 -5z m-878 -138
c47 -25 89 -82 110 -150 11 -36 31 -152 45 -258 37 -287 125 -1078 119 -1078
-1 0 -24 12 -50 26 -33 18 -59 24 -86 22 l-37 -4 7 291 c5 159 8 423 8 585 0
256 -2 305 -19 368 -23 89 -67 159 -121 189 -44 25 -23 33 24 9z m-133 -92
c27 -40 29 -171 3 -215 -11 -19 -22 -42 -25 -51 -9 -25 -60 -24 -74 1 -27 51
-2 210 41 265 26 33 34 33 55 0z m109 -14 c49 -30 68 -80 73 -187 l4 -93 -76
0 c-42 0 -76 2 -76 5 0 3 8 18 18 32 14 22 17 50 17 145 0 65 2 118 4 118 2 0
18 -9 36 -20z m6504 -206 c18 -23 42 -75 61 -135 19 -60 38 -103 49 -108 12
-7 59 -3 142 11 199 32 333 14 407 -55 28 -26 56 -88 44 -96 -5 -3 -12 -16
-16 -28 -10 -31 -57 -68 -113 -88 -133 -49 -151 -61 -176 -117 -13 -29 -45
-85 -70 -125 -33 -50 -54 -98 -71 -161 -28 -106 -36 -122 -77 -156 -60 -51
-122 -28 -153 56 -8 24 -25 69 -37 102 -12 32 -34 72 -49 90 l-28 31 -194 0
-193 0 -54 31 c-101 57 -162 180 -145 292 3 23 8 42 11 42 2 0 20 -8 41 -19
90 -45 147 -35 215 38 52 56 84 116 116 218 45 140 117 212 213 213 41 0 50
-4 77 -36z m-6271 -1218 c56 -29 67 -51 66 -134 -2 -154 -69 -406 -119 -450
-26 -22 -27 -22 -57 -5 -17 10 -42 33 -57 50 -41 51 -50 42 -31 -29 23 -83 90
-124 152 -94 17 9 33 15 35 13 9 -10 -60 -87 -83 -93 -37 -9 -100 23 -126 64
-41 66 -35 218 17 446 44 192 75 246 140 246 20 0 48 -6 63 -14z m3239 -229
c4 -8 39 -21 76 -31 61 -15 191 -62 516 -187 57 -23 129 -54 161 -70 32 -16
60 -29 63 -29 3 0 142 -57 309 -126 166 -69 359 -148 428 -176 155 -62 190
-82 190 -113 0 -12 -6 -27 -12 -33 -16 -12 -226 -78 -518 -162 -118 -34 -343
-99 -500 -145 -157 -46 -411 -120 -565 -165 -154 -45 -428 -126 -610 -180
-540 -161 -647 -191 -691 -192 -36 0 -86 22 -316 140 -576 295 -936 481 -1297
670 l-374 196 189 27 c104 15 344 57 534 93 474 90 521 98 525 94 3 -2 -7 -26
-20 -53 -30 -61 -33 -139 -7 -172 23 -29 381 -236 590 -341 145 -72 196 -77
352 -34 598 167 1309 391 1540 485 190 77 211 94 196 153 l-7 25 -52 -30 c-29
-16 -180 -70 -337 -121 -266 -86 -550 -181 -1055 -355 -347 -120 -421 -128
-551 -62 -82 41 -427 244 -501 294 -50 34 -83 81 -83 119 0 10 9 36 20 59 22
46 9 42 290 100 430 89 771 169 830 194 25 11 156 40 290 66 135 25 268 52
295 59 65 18 92 19 102 3z m2128 -157 c79 -45 308 -161 453 -230 73 -34 179
-87 234 -117 61 -32 108 -51 117 -48 9 4 36 9 61 11 107 10 160 17 415 59 149
25 320 52 380 60 61 8 139 20 173 25 35 6 92 12 125 14 34 2 108 12 164 21
133 21 160 10 134 -58 -12 -31 -17 -33 -176 -52 -178 -21 -533 -79 -685 -110
-308 -64 -421 -86 -501 -97 l-85 -12 -105 56 c-84 46 -393 184 -707 318 -68
29 -92 64 -100 142 l-5 61 29 -7 c16 -4 52 -20 79 -36z m-5111 -596 c424 -224
1626 -841 1722 -885 102 -45 84 -48 434 56 986 293 1248 370 1405 415 99 28
326 96 505 150 467 141 599 180 614 180 17 0 26 -22 26 -66 0 -33 -23 -104
-34 -104 -22 0 -424 -123 -866 -265 -74 -24 -322 -101 -550 -170 -228 -70
-503 -154 -610 -187 -107 -33 -244 -75 -305 -93 -60 -18 -177 -54 -260 -80
-189 -59 -265 -66 -350 -35 -135 52 -1888 953 -1932 994 -7 6 -16 46 -19 88
-6 73 -2 108 12 108 3 0 97 -48 208 -106z m4005 -1193 c-40 -100 -76 -181 -79
-180 -8 1 -153 167 -170 194 -8 14 -12 27 -8 30 3 3 62 26 132 50 142 50 186
70 186 87 0 6 3 9 6 6 3 -4 -27 -88 -67 -187z"/>
<path d="M6007 8293 c-4 -3 -7 -48 -7 -100 l0 -93 -317 0 c-175 0 -329 -3
-342 -7 -23 -6 -23 -5 -21 68 3 94 3 99 -14 99 -9 0 -15 -26 -20 -97 -5 -80
-11 -104 -31 -133 -32 -47 -46 -116 -44 -217 1 -62 -2 -89 -15 -108 -13 -20
-14 -25 -3 -25 13 0 14 -77 4 -1370 -1 -77 3 -101 18 -127 40 -68 22 -66 693
-64 374 1 614 6 631 12 39 15 70 48 81 88 11 35 21 671 24 1386 1 360 -4 403
-53 448 -45 42 -80 47 -329 47 l-235 0 5 90 c4 64 2 93 -7 100 -6 5 -15 7 -18
3z m518 -268 c40 -20 55 -51 55 -116 0 -44 -3 -51 -26 -59 -15 -6 -196 -10
-437 -11 -555 -1 -799 -10 -822 -29 -17 -14 -16 -15 16 -20 19 -3 313 -2 653
2 341 5 621 7 622 5 2 -2 0 -357 -4 -790 l-7 -786 -23 -23 -23 -23 -608 -3
-607 -2 -20 21 c-18 20 -19 48 -22 887 -3 888 -2 903 36 934 20 17 213 23 760
26 365 2 429 0 457 -13z"/>
<path d="M6406 7974 c-26 -26 -19 -53 19 -71 28 -13 37 -14 50 -3 22 18 19 56
-7 74 -28 20 -43 20 -62 0z"/>
<path d="M6267 7954 c-11 -11 13 -34 35 -34 13 0 18 6 16 18 -3 17 -38 29 -51
16z"/>
<path d="M5555 7681 l-90 -6 4 -120 c2 -76 7 -123 14 -128 7 -4 62 -6 122 -5
l110 3 -3 86 c-3 54 1 95 8 109 17 31 -11 71 -48 68 -15 -1 -67 -4 -117 -7z
m105 -126 l0 -85 -75 0 -75 0 2 78 c1 42 3 80 5 85 2 4 35 7 74 7 l69 0 0 -85z"/>
<path d="M5808 7683 c-22 -6 -23 -29 -2 -37 9 -3 125 -6 259 -6 283 0 268 6
263 -106 l-3 -66 -212 2 c-243 1 -343 -6 -343 -26 0 -7 5 -16 10 -19 17 -11
571 -8 582 3 15 15 16 228 0 244 -10 10 -75 13 -275 15 -144 0 -270 -1 -279
-4z"/>
<path d="M5845 7584 c-38 -11 -37 -23 3 -34 52 -16 366 -10 384 8 6 6 9 14 6
17 -7 8 -368 16 -393 9z"/>
<path d="M5897 7340 c-339 -4 -399 -7 -407 -20 -6 -8 -9 -69 -8 -135 l3 -120
440 3 c242 2 441 4 442 5 1 1 3 57 4 124 3 133 -4 155 -50 151 -14 -2 -205 -5
-424 -8z m415 -51 c18 -10 20 -19 16 -94 -1 -46 -5 -85 -8 -87 -3 -2 -179 -2
-392 0 l-388 2 0 90 0 90 263 2 c144 2 313 4 375 6 68 1 122 -2 134 -9z"/>
<path d="M5660 6980 c-5 -3 -10 -59 -12 -125 l-3 -120 105 -1 c58 0 113 -4
123 -8 40 -19 47 -3 47 111 0 59 -5 115 -10 123 -7 11 -37 16 -126 20 -64 3
-120 3 -124 0z m198 -54 c11 -6 18 -166 8 -166 -2 0 -20 7 -40 15 -20 9 -41
13 -46 10 -5 -3 -27 -3 -49 1 l-41 7 0 72 0 72 78 -2 c43 -1 84 -5 90 -9z"/>
<path d="M6126 6975 c-17 -17 -22 -44 -31 -157 -6 -72 -5 -77 16 -88 41 -22
130 -23 168 -2 96 53 91 193 -10 244 -43 22 -122 24 -143 3z m119 -49 c39 -16
55 -42 55 -86 0 -64 -92 -109 -122 -60 -7 11 -18 20 -25 20 -9 0 -13 17 -13
54 0 82 30 103 105 72z"/>
<path d="M5476 6614 c-10 -26 -7 -242 4 -249 19 -12 847 -17 869 -6 19 11 21
20 21 117 0 98 -2 107 -25 129 l-24 25 -419 0 c-374 0 -421 -2 -426 -16z m832
-49 c8 -3 12 -31 12 -91 l0 -87 -37 7 c-21 3 -201 6 -400 6 l-363 0 0 84 c0
80 1 85 23 88 32 4 750 -2 765 -7z"/>
<path d="M5624 6498 c-4 -6 1 -17 11 -25 15 -10 74 -13 269 -12 273 1 309 5
314 32 3 16 -16 17 -292 17 -212 0 -297 -3 -302 -12z"/>
<path d="M1872 8261 c-10 -6 -10 -10 2 -20 20 -17 96 -5 96 15 0 16 -75 20
-98 5z"/>
<path d="M2179 8253 c-3 -35 2 -148 7 -152 12 -12 19 18 19 86 0 52 -4 78 -12
80 -7 3 -14 -4 -14 -14z"/>
<path d="M4537 8263 c-3 -4 -8 -117 -12 -249 -6 -185 -5 -243 5 -249 30 -18
35 17 38 249 3 197 2 234 -11 245 -8 6 -17 8 -20 4z"/>
<path d="M3715 8248 c-3 -7 -4 -29 -3 -48 1 -19 1 -52 0 -74 -2 -36 -4 -38
-28 -32 -21 6 -25 4 -22 -11 2 -10 12 -18 23 -18 19 0 20 -8 23 -148 2 -119 5
-147 17 -147 22 0 26 48 23 274 -2 156 -6 210 -15 214 -7 2 -15 -2 -18 -10z"/>
<path d="M1835 8189 c-10 -15 -6 -16 53 -23 63 -7 102 1 102 20 0 11 -18 14
-74 14 -42 0 -78 -5 -81 -11z"/>
<path d="M6729 8184 c-9 -11 -10 -20 -2 -32 15 -25 221 -25 236 -1 6 9 7 24 4
33 -9 23 -218 24 -238 0z"/>
<path d="M4402 8108 c-35 -9 -43 -33 -14 -42 24 -8 92 0 104 12 26 26 -33 45
-90 30z"/>
<path d="M3935 8100 c-44 -4 -60 -9 -60 -20 0 -12 22 -16 130 -18 147 -3 195
2 195 23 0 24 -91 30 -265 15z"/>
<path d="M4797 8096 c-10 -25 16 -34 88 -29 77 5 80 6 72 28 -9 21 -152 22
-160 1z"/>
<path d="M5075 8100 c-13 -21 8 -30 76 -30 62 0 70 2 67 18 -3 14 -16 18 -70
20 -38 2 -69 -1 -73 -8z"/>
<path d="M4210 8080 c0 -15 27 -23 47 -16 15 6 15 8 3 16 -20 13 -50 12 -50 0z"/>
<path d="M5156 6011 c-12 -13 -16 -29 -12 -51 6 -39 3 -37 48 -41 64 -6 103
55 60 94 -25 23 -75 21 -96 -2z"/>
<path d="M5361 5971 c-35 -23 37 -51 130 -51 42 0 63 5 80 20 21 17 22 19 6
20 -10 0 -15 5 -12 10 8 13 -184 13 -204 1z"/>
<path d="M6063 5763 c-27 -5 -31 -38 -7 -47 9 -3 132 -6 275 -6 214 0 261 -2
265 -14 3 -8 2 -106 -3 -218 l-8 -203 -230 0 c-237 -1 -295 -6 -295 -31 0 -23
34 -25 303 -22 234 3 260 5 272 21 9 12 15 86 20 248 7 228 7 232 -14 253 -21
20 -30 21 -289 22 -147 1 -277 0 -289 -3z"/>
<path d="M5423 5712 c-45 -3 -73 -26 -56 -43 27 -27 223 -19 223 8 -1 30 -65
44 -167 35z"/>
<path d="M6128 5523 c-30 -8 -20 -32 16 -38 29 -6 127 -2 174 6 24 4 11 27
-19 33 -35 7 -144 6 -171 -1z"/>
<path d="M6370 5523 c-14 -6 -30 -22 -30 -33 0 -3 36 -6 79 -8 82 -3 103 6 81
33 -12 15 -98 20 -130 8z"/>
<path d="M6037 5433 c-4 -3 -7 -15 -7 -25 0 -17 14 -18 228 -18 125 0 233 4
241 9 8 5 11 16 8 25 -6 14 -35 16 -235 16 -126 0 -232 -3 -235 -7z"/>
<path d="M1683 7910 c-35 -21 -68 -76 -78 -131 -13 -68 52 -168 121 -185 64
-16 135 11 178 70 30 39 30 152 0 193 -47 65 -158 92 -221 53z m127 -15 c35
-10 59 -33 82 -79 18 -35 19 -44 8 -79 -18 -60 -37 -84 -81 -101 -38 -15 -43
-15 -83 3 -108 47 -117 204 -15 254 19 9 41 15 49 12 8 -2 26 -7 40 -10z"/>
<path d="M2833 7869 c-283 -7 -466 -16 -495 -25 -10 -3 -18 -12 -18 -20 0 -13
26 -14 198 -9 108 4 258 10 332 14 74 5 146 8 160 8 133 -4 208 11 148 28 -40
11 -48 12 -325 4z"/>
<path d="M2148 7852 c-21 -4 -35 -49 -20 -64 5 -5 20 -8 33 -6 17 2 25 10 27
29 3 29 -14 47 -40 41z"/>
<path d="M3103 7723 c-61 -5 -82 -22 -57 -48 14 -14 28 -15 78 -10 70 8 86 18
70 43 -12 19 -18 20 -91 15z"/>
<path d="M2960 7495 c0 -8 2 -15 4 -15 2 0 6 7 10 15 3 8 1 15 -4 15 -6 0 -10
-7 -10 -15z"/>
<path d="M1838 7443 c6 -2 18 -2 25 0 6 3 1 5 -13 5 -14 0 -19 -2 -12 -5z"/>
<path d="M1313 7118 c-4 -7 -9 -68 -11 -136 l-4 -124 28 4 29 3 3 102 c2 78
-1 110 -13 133 -17 34 -20 35 -32 18z"/>
<path d="M1307 6803 c-22 -21 0 -63 33 -63 15 0 31 37 24 54 -6 16 -45 22 -57
9z"/>
<path d="M1300 6655 c0 -45 1 -46 28 -43 24 3 27 7 27 43 0 36 -3 40 -27 43
-27 3 -28 2 -28 -43z"/>
<path d="M1300 6447 c0 -85 4 -118 15 -133 15 -19 15 -19 30 0 11 15 15 48 15
133 l0 113 -30 0 -30 0 0 -113z"/>
<path d="M2440 7395 c-9 -11 -10 -19 -3 -26 7 -7 14 -5 23 6 9 11 10 19 3 26
-7 7 -14 5 -23 -6z"/>
<path d="M2505 7390 c-3 -5 8 -16 25 -25 l30 -15 -12 25 c-11 25 -32 33 -43
15z"/>
<path d="M2406 7325 c-24 -37 -19 -50 9 -24 25 24 33 49 16 49 -5 0 -16 -11
-25 -25z"/>
<path d="M2590 7335 c0 -18 19 -40 26 -32 4 4 0 15 -9 24 -9 10 -17 13 -17 8z"/>
<path d="M2480 7281 c-5 -11 -10 -30 -9 -43 1 -22 2 -22 12 5 12 29 37 37 37
12 0 -20 39 -19 47 0 7 21 -1 28 -32 28 -14 0 -25 3 -25 8 0 16 -19 9 -30 -10z"/>
<path d="M2360 7244 c-13 -23 -12 -30 10 -69 14 -24 47 -76 75 -116 41 -59 49
-79 49 -113 l-2 -40 19 23 c32 39 25 81 -21 126 -21 22 -39 44 -40 48 0 5 -12
24 -26 43 -16 20 -29 52 -32 79 -5 51 -13 56 -32 19z"/>
<path d="M2490 7177 c0 -22 26 -51 39 -43 7 5 8 13 1 25 -12 23 -40 35 -40 18z"/>
<path d="M2400 6960 c0 -5 5 -10 11 -10 5 0 7 5 4 10 -3 6 -8 10 -11 10 -2 0
-4 -4 -4 -10z"/>
<path d="M2361 6931 c-6 -11 -11 -29 -11 -39 0 -25 48 -67 95 -82 19 -6 35
-18 35 -26 0 -16 36 -19 45 -4 8 13 -14 52 -25 45 -5 -3 -29 5 -54 17 -44 21
-75 65 -62 87 4 5 2 12 -3 16 -6 3 -15 -3 -20 -14z"/>
<path d="M2432 6928 c3 -7 13 -15 24 -17 16 -3 17 -1 5 13 -16 19 -34 21 -29
4z"/>
<path d="M2568 6854 c-28 -15 -34 -25 -22 -37 8 -8 64 31 64 44 0 12 -10 11
-42 -7z"/>
<path d="M4496 7034 c-29 -29 -13 -74 25 -74 22 0 49 37 49 67 0 19 -5 23 -29
23 -16 0 -37 -7 -45 -16z"/>
<path d="M4445 6689 c-38 -5 -169 -18 -290 -29 -471 -44 -548 -57 -526 -84 14
-17 59 -14 441 31 168 19 348 39 400 43 112 9 103 8 95 20 -3 6 1 7 9 4 9 -3
16 -2 16 4 0 23 -28 25 -145 11z"/>
<path d="M2667 6483 c16 -28 41 -49 48 -41 2 2 -13 19 -32 38 l-34 35 18 -32z"/>
<path d="M3240 5979 c-80 -11 -354 -48 -610 -84 -256 -36 -501 -70 -545 -75
-91 -13 -145 -27 -145 -41 0 -17 145 -14 250 6 41 7 109 16 150 20 70 6 350
45 670 95 74 11 193 27 263 36 123 14 171 28 164 49 -5 16 -41 15 -197 -6z"/>
<path d="M3195 5804 c-121 -19 -267 -42 -324 -51 -101 -17 -134 -34 -92 -48
20 -6 274 25 396 49 39 8 115 20 170 27 95 12 133 27 120 49 -8 13 -16 13
-270 -26z"/>
<path d="M1770 5823 c-45 -16 -54 -83 -15 -109 43 -28 125 2 125 46 0 10 -9
29 -21 44 -20 25 -52 32 -89 19z"/>
<path d="M3435 5649 c-27 -5 -201 -31 -385 -59 -477 -72 -719 -110 -768 -122
-35 -9 -40 -13 -31 -24 9 -11 26 -13 63 -8 102 11 620 91 1171 179 33 6 62 21
55 29 -12 11 -59 13 -105 5z"/>
<path d="M2089 5479 c-36 -39 -37 -71 -3 -98 40 -32 89 -28 127 11 20 20 27
33 19 36 -6 2 -12 9 -12 15 0 21 -54 67 -78 67 -14 0 -36 -13 -53 -31z"/>
<path d="M1793 5470 c-23 -9 -63 -65 -63 -87 0 -19 36 -52 65 -59 87 -22 137
89 63 140 -25 18 -33 19 -65 6z"/>
<path d="M3317 5439 c-97 -17 -136 -34 -119 -51 11 -11 199 10 231 25 30 14
43 44 16 33 -10 -4 -21 -3 -24 2 -3 5 -50 1 -104 -9z"/>
<path d="M2825 5360 c-16 -5 -76 -16 -132 -24 -102 -15 -143 -28 -143 -46 0
-13 25 -13 167 5 162 20 192 32 161 63 -13 13 -12 13 -53 2z"/>
<path d="M2209 5296 c-2 -2 -78 -14 -169 -26 -91 -11 -196 -27 -235 -33 l-70
-13 2 -59 c1 -33 2 -102 3 -152 1 -113 4 -115 112 -103 91 11 373 49 405 56
39 8 46 36 34 145 -11 99 -31 166 -54 181 -14 9 -22 10 -28 4z m15 -54 c11
-17 29 -213 20 -222 -7 -7 -168 -35 -424 -73 -12 -2 -17 18 -27 93 -19 160
-26 145 70 159 45 7 141 21 212 31 72 10 133 18 137 19 4 1 9 -2 12 -7z"/>
<path d="M3235 5209 c-22 -6 -168 -32 -324 -60 -319 -57 -339 -62 -321 -85 10
-11 24 -13 59 -9 63 9 365 62 481 85 52 11 114 21 138 23 48 4 68 18 59 41 -7
18 -32 19 -92 5z"/>
<path d="M2500 4951 c-87 -27 -202 -120 -261 -213 -29 -44 -31 -54 -26 -107 2
-32 12 -74 20 -92 8 -19 18 -46 21 -60 11 -48 85 -119 146 -138 l55 -18 9 -76
c4 -43 13 -77 19 -77 17 0 75 49 82 69 5 18 13 19 73 14 76 -6 142 14 142 43
0 14 -2 14 -16 3 -10 -8 -52 -15 -110 -17 -77 -4 -94 -7 -99 -22 -7 -21 -53
-65 -61 -58 -3 3 -9 36 -15 73 -5 37 -11 71 -14 75 -3 4 -21 11 -41 14 -43 9
-112 73 -146 138 -32 61 -32 177 0 231 50 80 185 173 287 198 28 6 54 16 60
20 11 11 -90 10 -125 0z"/>
<path d="M3575 4690 c-22 -5 -119 -21 -215 -36 -169 -26 -239 -46 -247 -71 -5
-15 25 -21 62 -11 37 9 417 69 463 73 40 3 55 16 46 38 -7 19 -41 21 -109 7z"/>
<path d="M2997 4535 c-7 -43 -18 -65 -55 -114 -29 -39 -10 -41 28 -3 33 34 51
91 41 129 -7 27 -8 27 -14 -12z"/>
<path d="M1985 4250 c-55 -9 -121 -20 -147 -24 -74 -11 -104 -56 -37 -56 41 0
297 48 332 61 15 7 26 17 24 23 -5 17 -62 16 -172 -4z"/>
<path d="M3916 4162 c-9 -15 43 -27 317 -74 37 -6 64 -14 60 -18 -4 -4 -62
-17 -128 -30 -66 -12 -217 -44 -335 -71 -588 -131 -727 -169 -714 -191 11 -17
121 0 494 78 195 41 468 97 605 124 282 56 310 63 309 76 -3 20 -62 36 -257
69 -237 40 -342 51 -351 37z"/>
<path d="M5495 3643 c-35 -9 -216 -73 -233 -83 -15 -8 -14 -9 6 -10 34 0 235
68 250 85 13 15 11 16 -23 8z"/>
<path d="M4865 3459 c-110 -32 -239 -70 -287 -85 -132 -41 -109 -56 27 -18
424 117 505 142 505 154 0 17 -41 9 -245 -51z"/>
<path d="M5095 3399 c-71 -22 -197 -57 -278 -79 -152 -41 -202 -60 -179 -68
14 -4 186 39 427 108 94 26 181 50 195 52 14 2 25 8 25 13 0 21 -64 12 -190
-26z"/>
<path d="M4087 3399 c-52 -12 -79 -28 -71 -41 4 -6 3 -8 -3 -5 -17 11 -44 -29
-49 -70 -3 -35 1 -41 41 -76 61 -53 133 -71 245 -62 95 8 129 21 159 64 32 44
28 97 -9 131 -64 60 -180 91 -209 56 -9 -11 -4 -15 26 -19 52 -9 123 -47 146
-78 17 -23 18 -31 7 -63 -22 -68 -65 -78 -215 -52 -44 8 -88 17 -97 21 -25 10
-52 56 -50 84 2 26 38 71 56 71 6 0 25 11 41 25 17 13 28 24 25 24 -3 -1 -22
-5 -43 -10z"/>
<path d="M2672 3353 c4 -22 81 -66 358 -205 224 -112 225 -113 295 -112 56 0
106 12 258 59 103 32 187 63 187 68 0 24 -177 -18 -366 -86 -67 -25 -73 -25
-119 -11 -27 8 -59 21 -72 29 -53 35 -490 263 -516 269 -24 6 -28 4 -25 -11z"/>
<path d="M6760 4042 c0 -13 196 -106 418 -198 86 -36 210 -97 274 -136 38 -24
60 -19 42 9 -13 21 -168 104 -268 143 -43 17 -162 67 -264 111 -187 80 -202
85 -202 71z"/>
<path d="M8507 3894 c-3 -3 -30 -6 -59 -5 -59 0 -125 -10 -468 -73 -129 -24
-252 -47 -272 -50 -21 -4 -38 -11 -38 -16 0 -14 42 -12 140 5 170 31 299 54
505 90 116 21 214 41 220 46 5 6 3 9 -6 9 -9 0 -18 -3 -22 -6z"/>
<path d="M2835 2804 c52 -40 269 -153 385 -200 l35 -15 -25 20 c-27 21 -393
211 -407 211 -4 0 1 -8 12 -16z"/>
<path d="M1432 8440 c-50 -31 -92 -129 -99 -230 -6 -79 10 -151 28 -133 5 5
12 63 15 128 9 158 30 202 114 238 l35 15 -30 1 c-16 1 -45 -8 -63 -19z"/>
<path d="M6702 4605 c16 -16 597 -265 618 -265 33 0 -17 44 -75 66 -16 6 -136
54 -265 106 -235 95 -306 119 -278 93z"/>
<path d="M6506 4503 c-3 -4 3 -12 13 -19 21 -15 318 -143 451 -194 47 -18 128
-52 180 -75 109 -49 170 -68 170 -54 0 14 -207 112 -223 106 -6 -2 -30 6 -52
19 -31 17 -340 147 -511 214 -12 5 -25 6 -28 3z"/>
<path d="M8457 4443 c-4 -3 -7 -9 -7 -13 0 -7 94 -2 165 10 44 7 37 8 -51 9
-55 0 -104 -2 -107 -6z"/>
<path d="M8315 4434 c-72 -9 -171 -27 -185 -35 -20 -11 -15 -11 125 6 66 8
124 15 128 15 5 0 5 5 2 10 -6 10 -12 10 -70 4z"/>
<path d="M8819 4393 c-43 -110 -44 -111 -101 -117 -29 -3 -100 -8 -158 -11
-58 -3 -188 -17 -290 -31 -102 -13 -225 -29 -275 -34 -224 -24 -515 -80 -515
-99 0 -4 84 7 188 25 103 18 232 37 287 44 55 6 107 14 115 17 8 3 25 5 37 4
12 -1 50 3 85 9 34 7 74 13 88 15 152 19 251 29 389 39 l165 11 14 63 c14 64
11 92 -8 92 -6 0 -15 -12 -21 -27z"/>
<path d="M7842 4375 c-128 -14 -156 -25 -61 -25 64 0 258 25 267 35 8 8 -82 3
-206 -10z"/>
<path d="M8510 4353 c-238 -23 -351 -38 -1000 -139 -25 -4 -52 -11 -60 -16
-20 -12 94 -4 225 16 55 9 145 22 200 31 278 43 379 57 618 84 87 10 161 21
164 25 6 6 -82 6 -147 -1z"/>
<path d="M7000 4095 c0 -10 386 -189 433 -200 64 -16 17 17 -112 79 -176 84
-321 138 -321 121z"/>
<path d="M6610 3913 c36 -20 142 -73 235 -119 94 -46 211 -107 260 -135 97
-57 246 -125 284 -131 69 -10 1 32 -287 174 -340 170 -512 248 -540 248 -9 0
12 -17 48 -37z"/>
<path d="M8720 3515 c-85 -16 -420 -126 -420 -138 0 -3 44 9 98 25 141 42 267
59 432 60 184 0 265 -20 386 -92 46 -28 88 -49 94 -45 5 3 21 -2 35 -11 50
-33 37 -4 -26 58 -68 67 -176 128 -259 147 -62 14 -250 12 -340 -4z"/>
<path d="M6791 3291 c-12 -21 -54 -161 -66 -218 -6 -30 -5 -33 19 -33 27 0 24
-6 68 155 16 58 -3 55 234 37 77 -6 300 -16 495 -22 408 -13 471 -17 493 -33
14 -11 14 -20 -4 -97 -10 -47 -48 -184 -85 -305 -108 -358 -130 -455 -211
-904 l-28 -154 -88 7 c-48 3 -242 15 -431 26 -637 38 -922 73 -1324 162 -57
13 -79 5 -48 -18 52 -38 249 -81 465 -100 41 -3 80 -10 86 -15 33 -26 356 -62
1009 -111 402 -30 414 -30 433 19 10 26 24 123 40 292 l7 74 151 81 c269 144
416 230 455 267 37 34 39 39 39 94 0 56 -2 60 -43 99 -24 23 -114 83 -200 134
-168 99 -187 109 -187 95 0 -5 66 -49 147 -98 189 -115 223 -144 223 -197 0
-21 -7 -50 -16 -63 -17 -26 -401 -266 -552 -344 -23 -12 -23 -11 -17 26 35
212 126 595 190 793 65 204 66 267 1 290 -17 6 -130 15 -251 20 -712 29 -773
32 -957 57 -29 4 -38 1 -47 -16z"/>
<path d="M9420 3306 c0 -2 35 -30 78 -62 42 -32 82 -65 89 -73 7 -9 13 -40 13
-70 0 -50 -3 -57 -43 -96 -40 -41 -93 -65 -143 -65 -11 0 -67 16 -124 36
l-103 36 -131 -7 c-154 -8 -154 -8 -416 115 -145 69 -297 122 -441 154 -29 6
-39 -6 -39 -47 0 -55 126 -184 230 -237 157 -78 496 -130 860 -130 258 0 278
6 344 102 73 106 58 196 -46 275 -64 49 -128 84 -128 69z m-1038 -105 c42 -11
177 -67 303 -126 215 -101 232 -107 314 -115 47 -4 89 -6 93 -3 15 8 165 -19
204 -37 l39 -18 -160 -1 c-121 -1 -201 5 -330 24 -313 46 -477 106 -586 214
-32 33 -59 64 -59 70 0 18 99 13 182 -8z"/>
<path d="M7265 3071 c-11 -5 -28 -17 -37 -28 -28 -31 -141 -295 -142 -332 -1
-30 3 -35 34 -46 38 -13 283 -35 393 -35 44 0 70 5 80 15 8 8 25 47 37 86 12
40 41 117 66 172 46 103 53 135 32 142 -7 2 -85 9 -173 15 -88 6 -185 12 -215
15 -30 3 -64 1 -75 -4z m288 -58 c70 -3 127 -10 127 -16 0 -5 -25 -67 -55
-139 -30 -71 -55 -143 -55 -159 0 -21 -6 -30 -22 -34 -13 -3 -105 1 -206 8
-235 18 -231 15 -168 131 26 47 55 113 66 146 11 34 23 66 26 72 5 7 33 9 83
4 42 -3 133 -9 204 -13z"/>
<path d="M6049 2964 c-11 -27 -29 -66 -40 -87 -46 -86 -16 -112 180 -152 68
-14 132 -30 142 -35 10 -6 33 -10 52 -10 l35 0 31 98 c37 115 37 118 11 132
-30 16 -216 69 -280 79 -30 5 -67 12 -83 16 -25 7 -29 4 -48 -41z m206 -44
c65 -16 128 -36 141 -45 23 -15 23 -16 8 -62 -9 -27 -18 -56 -21 -65 -3 -10
-6 -18 -7 -18 -16 1 -308 70 -316 75 -14 9 -6 62 17 111 21 42 28 42 178 4z"/>
<path d="M6590 2840 c0 -14 33 -26 127 -45 43 -9 90 -24 104 -35 20 -14 29
-16 38 -7 31 31 -3 55 -116 81 -82 18 -153 21 -153 6z"/>
<path d="M6540 2661 c0 -15 24 -25 160 -61 63 -16 129 -35 147 -40 32 -11 83
-4 83 10 0 17 -35 35 -69 36 -20 0 -76 12 -125 27 -106 32 -196 45 -196 28z"/>
<path d="M5910 2650 c0 -5 19 -14 43 -20 23 -6 175 -50 337 -97 162 -47 336
-94 386 -103 50 -10 109 -24 132 -31 45 -13 83 -6 64 13 -12 12 -168 55 -247
68 -27 5 -77 18 -110 30 -33 12 -130 39 -215 61 -85 22 -195 51 -245 64 -95
26 -145 31 -145 15z"/>
<path d="M7055 2520 c-8 -13 22 -18 160 -25 66 -3 160 -10 209 -16 91 -10 128
-2 89 19 -42 23 -446 42 -458 22z"/>
<path d="M5880 2451 c0 -15 9 -18 98 -36 83 -17 155 -13 120 6 -21 12 -152 39
-189 39 -16 0 -29 -4 -29 -9z"/>
<path d="M7060 2391 c0 -17 56 -24 230 -30 186 -6 220 -5 220 10 0 5 -10 11
-22 13 -46 9 -428 15 -428 7z"/>
<path d="M6250 2381 c0 -21 122 -50 335 -81 44 -7 113 -21 154 -31 58 -15 77
-16 88 -7 29 24 -39 41 -312 78 -44 7 -114 20 -157 31 -84 21 -108 23 -108 10z"/>
<path d="M5832 2333 c-22 -9 -92 -171 -92 -214 0 -13 82 -56 130 -67 144 -35
269 -62 287 -62 11 0 25 6 31 13 15 18 72 181 72 205 0 22 -3 23 -155 70 -167
52 -243 67 -273 55z m130 -68 c71 -15 215 -61 230 -74 5 -4 -4 -42 -18 -84
-30 -89 -21 -86 -162 -56 -118 26 -198 55 -206 74 -7 18 9 108 24 135 13 24
35 25 132 5z"/>
<path d="M7060 2301 c0 -13 20 -17 145 -30 192 -20 282 -24 289 -13 10 17 -5
21 -120 31 -226 20 -314 24 -314 12z"/>
<path d="M6405 2151 c-8 -15 1 -17 136 -37 119 -17 128 -17 144 -1 21 21 19
22 -107 36 -118 13 -165 14 -173 2z"/>
<path d="M6322 1988 c7 -19 91 -35 205 -39 81 -3 98 -1 98 11 0 19 -38 26
-186 35 -99 6 -120 4 -117 -7z"/>
<path d="M5880 1684 c120 -131 258 -267 285 -282 19 -10 54 -16 95 -15 56 0
98 12 290 81 124 44 281 99 350 120 l125 40 -55 1 c-85 1 -188 -21 -385 -82
-374 -115 -343 -117 -496 28 -105 100 -160 136 -224 151 l-30 7 45 -49z"/>
<path d="M448 591 c-26 -14 -48 -28 -48 -31 0 -3 20 -16 45 -29 40 -21 105
-97 105 -123 0 -17 19 -7 26 15 3 12 12 29 19 37 17 21 15 50 -3 42 -10 -3
-13 -1 -8 6 7 12 -41 68 -56 64 -6 -2 -8 4 -4 13 3 9 2 13 -3 10 -6 -3 -13 1
-18 9 -7 11 -17 9 -55 -13z"/>
</g>
</svg>
