<?xml version="1.0" standalone="no"?>
<!DOCTYPE svg PUBLIC "-//W3C//DTD SVG 20010904//EN"
 "http://www.w3.org/TR/2001/REC-SVG-20010904/DTD/svg10.dtd">
<svg version="1.0" xmlns="http://www.w3.org/2000/svg"
 width="1024.000000pt" height="1024.000000pt" viewBox="0 0 1024.000000 1024.000000"
 preserveAspectRatio="xMidYMid meet">

<g transform="translate(0.000000,1024.000000) scale(0.100000,-0.100000)"
fill="#000000" stroke="none">
<path d="M3712 9610 c-217 -58 -396 -229 -458 -435 -25 -82 -25 -248 0 -330
34 -114 77 -175 293 -422 83 -94 131 -157 127 -166 -6 -16 11 -38 155 -197 57
-63 165 -183 240 -265 386 -427 391 -432 431 -417 10 4 73 57 140 117 136 123
161 141 183 132 14 -5 16 -31 15 -204 -2 -334 37 -509 229 -1033 205 -559 232
-749 182 -1291 -22 -244 -19 -343 12 -466 64 -252 221 -360 515 -351 l120 3
-9 -26 c-12 -30 -4 -59 16 -59 8 0 33 25 56 56 61 81 56 96 -48 156 -46 26
-87 45 -92 42 -18 -11 -8 -34 31 -67 51 -43 44 -47 -94 -47 -257 0 -381 88
-441 315 -21 81 -21 286 0 485 9 85 17 236 17 335 1 278 -40 482 -168 826
-161 436 -220 633 -249 829 -19 123 -25 374 -12 453 l8 47 30 -21 c30 -21 59
-20 59 2 0 6 -14 40 -31 75 -17 35 -29 70 -26 78 3 7 92 91 199 186 293 262
288 257 288 295 0 29 -33 70 -282 346 -156 172 -324 360 -375 418 -101 115
-129 136 -165 122 -13 -5 -77 -58 -143 -118 -66 -61 -219 -201 -340 -311
l-220 -202 -50 54 c-291 312 -295 318 -295 445 0 119 69 224 179 275 34 15 66
21 126 21 70 0 87 -4 134 -30 32 -17 77 -57 110 -95 94 -108 115 -128 158
-140 24 -7 57 -10 78 -6 49 10 112 68 125 116 17 64 -5 105 -121 230 -171 184
-288 247 -469 256 -74 3 -111 0 -168 -16z m283 -115 c111 -29 255 -130 255
-180 0 -43 -28 -37 -93 23 -108 97 -204 129 -334 111 -79 -11 -133 -33 -205
-81 -165 -110 -241 -330 -171 -489 22 -49 157 -217 287 -357 47 -50 86 -96 86
-101 0 -5 -6 -14 -14 -20 -15 -13 -59 30 -236 229 -166 187 -200 250 -200 374
0 133 50 248 149 346 136 135 310 188 476 145z m365 -260 c15 -19 6 -61 -16
-69 -42 -16 -75 24 -54 64 13 24 52 27 70 5z m350 -282 c117 -120 168 -177
150 -168 -8 5 9 -18 39 -51 30 -32 65 -70 77 -84 189 -212 238 -267 302 -334
l75 -78 -84 -80 c-149 -141 -239 -218 -254 -218 -8 0 -99 -78 -201 -172 -285
-263 -325 -299 -333 -296 -4 2 -61 62 -126 133 -65 72 -222 244 -349 383 -127
140 -232 259 -234 266 -2 10 385 370 698 649 48 42 96 90 108 107 13 16 28 30
35 30 7 0 51 -39 97 -87z"/>
<path d="M4365 8546 c-58 -27 -88 -57 -110 -108 -50 -120 33 -248 161 -248
l51 0 77 -119 c42 -66 84 -122 92 -125 75 -29 189 52 201 142 5 36 3 39 -74
103 -43 36 -93 76 -111 90 -33 23 -33 25 -27 77 4 31 2 66 -5 86 -21 64 -112
126 -185 126 -11 0 -42 -11 -70 -24z"/>
<path d="M5030 7975 c-7 -9 -11 -17 -9 -20 3 -2 10 5 17 15 14 24 10 26 -8 5z"/>
<path d="M7555 7938 c-179 -19 -358 -81 -443 -154 -54 -46 -75 -85 -82 -153
l-5 -55 -66 3 c-80 3 -129 -15 -182 -67 -166 -161 -204 -474 -92 -762 18 -47
47 -114 65 -149 l32 -64 -26 -21 c-49 -40 -76 -150 -56 -227 6 -24 27 -68 46
-96 l34 -53 -11 -72 c-10 -68 -8 -128 6 -173 6 -19 6 -19 -10 0 -21 25 -134
259 -164 339 -21 57 -21 61 -6 124 22 85 13 136 -31 180 -31 31 -38 33 -88 31
-53 -2 -56 -1 -109 48 -124 112 -227 112 -227 -2 0 -39 -3 -46 -30 -60 -32
-17 -60 -61 -60 -96 0 -11 -11 -34 -25 -51 -36 -42 -35 -109 3 -169 46 -72
115 -117 227 -146 l66 -18 45 -134 c81 -242 138 -362 267 -556 84 -126 141
-199 220 -282 l68 -73 -3 -102 -3 -103 -505 4 -505 4 -19 -22 c-35 -39 -25
-69 111 -307 71 -126 152 -269 178 -319 122 -225 227 -410 238 -417 7 -4 110
-8 230 -8 l217 0 0 -50 c0 -65 18 -100 68 -128 l39 -22 -19 -92 c-97 -473
-211 -1257 -282 -1948 -37 -353 -47 -433 -57 -451 -6 -12 -31 -17 -101 -22
-200 -13 -307 -58 -355 -150 -21 -41 -21 -106 1 -139 31 -48 56 -51 375 -52
346 -1 339 -3 387 90 32 63 33 65 114 519 108 603 254 1280 349 1625 33 118
65 234 71 258 19 75 19 77 110 -220 142 -464 379 -1044 649 -1586 55 -112 101
-212 101 -223 0 -12 -30 -39 -92 -81 -181 -120 -248 -206 -235 -300 10 -72 29
-81 177 -76 118 4 128 6 189 37 78 40 302 201 330 237 35 44 45 96 33 157 -14
72 -123 372 -275 762 -119 307 -198 531 -231 660 -18 71 -186 936 -186 958 0
9 13 18 29 22 48 10 54 26 47 118 -4 45 -13 121 -20 169 l-13 87 36 34 c20 19
86 76 146 127 61 51 115 102 122 114 17 29 16 99 -1 140 l-14 34 -165 7 -165
7 -6 46 c-7 54 -8 192 -1 192 3 0 61 -34 130 -75 68 -41 135 -75 148 -75 17 0
33 -13 56 -45 80 -112 110 -231 111 -440 l0 -130 -42 -85 c-67 -138 -58 -213
31 -241 20 -6 55 -20 79 -31 34 -16 48 -18 73 -9 22 8 35 7 50 -2 15 -10 28
-8 67 6 26 10 61 20 78 22 80 8 134 60 135 130 2 191 -11 233 -83 285 -52 38
-56 48 -57 124 -1 97 -30 265 -62 361 -73 218 -201 372 -439 529 -176 116
-505 294 -598 323 l-53 17 3 50 3 51 50 12 c102 25 202 68 278 120 l78 53 62
-21 c144 -49 287 16 356 161 22 46 26 69 26 138 0 77 1 83 19 78 11 -3 28 -1
38 5 23 13 24 65 1 78 -21 11 -18 17 71 170 68 116 119 237 153 361 23 83 26
115 27 260 1 144 -2 175 -22 244 -12 43 -21 81 -18 83 2 2 21 -17 42 -42 79
-97 105 -84 75 36 -23 92 -73 204 -122 275 -98 142 -324 298 -488 336 -28 6
-51 14 -51 18 0 4 24 17 53 31 28 13 51 29 50 34 -1 6 -32 18 -70 29 -37 10
-93 26 -123 35 l-55 16 70 3 c39 1 118 -6 178 -16 59 -10 112 -15 119 -11 26
16 -4 38 -74 55 -61 14 -128 17 -403 19 -181 1 -366 -2 -410 -7z m-405 -1263
c46 -47 49 -55 19 -55 -18 0 -20 -2 -9 -15 9 -11 22 -14 42 -10 16 4 28 2 28
-3 0 -12 93 -82 109 -82 23 0 9 27 -31 61 -24 19 -51 38 -60 42 -10 3 -18 15
-18 26 0 11 -5 23 -11 27 -15 9 -99 124 -99 136 0 5 42 -26 93 -70 204 -175
360 -273 679 -430 131 -65 237 -123 238 -129 0 -17 3 -18 -87 17 -223 86 -563
152 -622 120 -26 -13 -141 20 -186 55 -20 15 -78 45 -128 66 -50 22 -95 43
-99 47 -8 8 9 340 19 372 2 9 20 -16 43 -59 22 -41 58 -93 80 -116z m-907 -46
c33 -17 107 -79 107 -89 0 -5 -10 -14 -21 -21 -18 -9 -25 -7 -43 14 -11 14
-36 33 -53 41 -24 12 -33 23 -33 41 0 28 10 31 43 14z m-23 -137 c37 -18 59
-62 24 -47 -11 4 -45 10 -77 13 -61 5 -70 17 -26 39 31 16 37 16 79 -5z m285
-7 c30 -29 33 -75 9 -135 -16 -40 -16 -43 15 -133 39 -112 185 -388 279 -529
38 -57 84 -129 102 -161 l33 -59 -23 -41 c-45 -84 -102 -167 -111 -161 -17 10
-147 199 -202 294 -70 120 -122 244 -187 440 l-51 155 -58 1 c-73 1 -152 36
-204 90 -81 84 -56 144 61 144 54 0 102 -33 102 -69 0 -18 -6 -21 -38 -21 -21
0 -55 9 -77 20 -49 25 -65 25 -65 1 0 -27 42 -57 100 -71 60 -14 100 -7 130
26 13 13 34 24 47 24 37 0 79 26 102 63 44 71 10 92 -49 32 -61 -63 -105 -29
-57 44 23 35 75 70 105 71 7 0 24 -11 37 -25z m355 -61 c22 -9 40 -18 40 -21
0 -13 -76 -173 -82 -173 -4 0 -15 12 -25 27 -30 46 -17 183 17 183 5 0 28 -7
50 -16z m160 -61 c56 -23 130 -74 130 -90 0 -44 -58 -105 -114 -119 -27 -6
-27 -5 -16 15 14 27 10 73 -8 79 -7 2 -31 -15 -53 -37 -42 -42 -62 -50 -75
-30 -3 6 10 47 31 90 22 46 35 88 32 100 -6 22 3 21 73 -8z m315 -157 c17 -11
26 -29 30 -63 14 -104 58 -190 121 -238 90 -68 238 -106 337 -85 94 19 161 75
232 195 6 9 17 14 26 10 14 -5 13 -18 -12 -113 -29 -112 -35 -157 -20 -166 9
-6 27 7 172 125 52 42 104 80 117 84 54 16 100 -58 88 -141 -15 -116 -120
-214 -228 -214 -37 0 -90 20 -116 43 l-22 21 -76 -53 c-144 -101 -276 -147
-449 -158 -281 -16 -490 89 -623 313 -65 109 -85 175 -79 258 4 37 8 70 10 72
2 2 21 -3 43 -12 60 -26 169 -24 221 4 47 24 96 73 119 116 14 25 20 28 51 23
19 -4 46 -13 58 -21z m309 -15 c71 -16 135 -27 141 -24 18 6 175 -56 182 -73
8 -21 -35 -100 -73 -133 -81 -71 -229 -63 -346 20 -41 30 -78 111 -78 175 0
77 -6 76 174 35z m-450 -770 c36 -15 56 -29 56 -40 0 -42 -14 -91 -25 -91 -14
0 -178 168 -214 219 -22 31 -21 30 52 -17 41 -27 100 -59 131 -71z m-97 -122
c78 -81 102 -100 120 -96 18 3 28 -3 43 -28 31 -50 81 -70 175 -70 88 0 126
14 182 68 l32 30 48 -18 c159 -58 663 -362 736 -443 17 -19 16 -21 -21 -69
-39 -49 -119 -123 -133 -123 -6 0 -195 113 -316 190 -44 27 -55 31 -68 20 -21
-18 -19 -40 9 -69 22 -24 24 -35 28 -164 l5 -138 -75 3 -75 3 -13 40 c-7 22
-34 106 -59 187 -26 81 -55 158 -65 170 -18 23 -21 23 -337 28 l-318 5 -5 123
-5 122 -60 54 -60 55 20 33 c11 19 40 68 65 111 25 42 46 77 47 77 1 0 46 -45
100 -101z m353 -113 c41 -1 89 3 105 8 27 8 29 8 17 -7 -37 -45 -192 -50 -250
-9 -17 13 -32 30 -32 38 0 11 9 10 43 -7 31 -17 61 -23 117 -23z m-20 -445
l165 -6 13 -40 c8 -22 51 -170 97 -330 85 -296 121 -442 112 -451 -2 -3 -21
48 -42 113 -20 65 -57 180 -81 256 -25 77 -47 153 -49 170 -2 17 -8 42 -14 56
-5 14 -19 58 -31 97 -13 45 -27 75 -38 79 -9 4 -143 11 -297 15 -296 9 -926
38 -960 44 -35 6 952 4 1125 -3z m-1151 -31 c124 -5 332 -14 461 -20 129 -5
307 -12 395 -14 88 -3 216 -8 283 -12 121 -7 124 -8 133 -33 6 -14 48 -148 94
-297 47 -150 103 -321 125 -380 31 -83 37 -110 28 -116 -13 -9 -858 -3 -1168
8 -91 3 -171 10 -178 16 -7 6 -45 70 -84 142 -40 72 -75 133 -79 136 -3 3 -17
25 -29 50 -12 25 -46 86 -75 135 -71 123 -215 390 -215 400 0 4 19 5 41 1 23
-4 144 -11 268 -16z m2290 -125 c54 -83 106 -213 127 -322 7 -39 16 -133 20
-207 l7 -135 45 -23 c75 -37 86 -62 87 -181 1 -56 -3 -108 -8 -114 -11 -15
-67 -17 -67 -3 0 6 -7 10 -15 10 -8 0 -15 -9 -15 -20 0 -24 -34 -43 -60 -35
-11 4 -23 17 -26 31 -7 28 -34 33 -34 5 0 -26 -24 -43 -56 -39 -29 3 -39 16
-49 61 -5 27 -35 39 -35 15 0 -7 -4 -19 -9 -27 -8 -12 -12 -12 -25 -2 -25 21
-20 46 32 160 l49 106 -8 156 c-4 85 -15 187 -23 226 -17 83 -65 185 -107 228
-16 17 -29 34 -29 38 0 10 133 146 143 147 4 0 29 -34 56 -75z m-431 -275 l76
0 -30 -31 c-50 -53 -71 -59 -211 -59 -70 0 -134 4 -142 9 -8 5 -20 29 -27 52
l-13 42 136 -6 c75 -4 170 -7 211 -7z m167 -61 c5 -14 1 -27 -11 -40 -34 -33
-369 -309 -375 -309 -4 0 -9 10 -13 23 -5 18 5 31 52 73 86 76 326 273 334
274 4 0 10 -10 13 -21z m-277 -88 c-26 -23 -37 -27 -56 -20 -13 5 -38 9 -57 9
-40 0 -85 16 -85 30 0 6 43 10 115 10 l115 0 -32 -29z m-53 -42 c3 -3 -20 -16
-52 -27 -31 -12 -58 -20 -60 -18 -2 1 -5 16 -9 32 l-6 30 61 -6 c33 -3 63 -8
66 -11z m-65 -84 c-21 -23 -25 -24 -33 -9 -11 19 6 34 37 34 18 0 18 -2 -4
-25z m94 -252 c4 -38 9 -89 12 -114 6 -45 6 -47 -27 -58 -19 -7 -98 -25 -175
-41 -115 -24 -166 -30 -272 -30 -218 0 -418 33 -529 87 -63 31 -86 59 -81 100
l3 28 445 -4 445 -4 60 31 c33 16 69 39 79 51 11 12 22 21 26 21 4 0 10 -30
14 -67z m565 -2449 c7 -19 11 -37 9 -38 -8 -7 -181 -86 -188 -86 -5 0 -13 14
-19 30 -8 25 -7 32 7 40 23 14 166 87 172 89 4 0 12 -15 19 -35z m-1651 -214
c1 0 2 -10 2 -22 0 -45 -10 -49 -121 -46 l-104 3 3 30 c6 77 -1 73 114 53 57
-9 104 -17 106 -18z"/>
<path d="M7262 6148 c-5 -7 -18 -33 -29 -58 -11 -25 -37 -61 -57 -79 -20 -19
-36 -42 -36 -52 0 -21 47 -72 60 -64 15 9 12 32 -5 39 -23 9 -18 24 20 59 34
32 75 112 75 148 0 22 -13 25 -28 7z"/>
<path d="M7034 5829 c3 -18 10 -35 14 -39 4 -3 23 -25 42 -49 74 -95 194 -106
288 -26 20 18 47 35 60 39 30 10 46 40 28 55 -10 8 -17 6 -31 -9 -54 -59 -202
-43 -365 40 l-43 22 7 -33z"/>
<path d="M7635 6065 c-29 -28 -33 -76 -10 -95 40 -33 125 6 125 57 0 30 -34
63 -65 63 -14 0 -37 -11 -50 -25z"/>
<path d="M3651 5894 c-117 -31 -258 -133 -289 -210 l-12 -29 -103 -1 c-168 0
-325 -56 -473 -167 -39 -29 -75 -52 -80 -50 -5 1 -19 -13 -32 -32 l-22 -35
-40 26 c-71 47 -185 45 -238 -4 -28 -26 -32 -27 -158 -28 -163 -1 -280 -30
-439 -109 -186 -92 -314 -217 -401 -389 -24 -48 -56 -102 -70 -120 -63 -74
-100 -226 -91 -371 7 -104 22 -164 43 -172 8 -3 17 -3 20 -1 2 3 -2 45 -11 93
-19 108 -19 161 0 247 15 71 51 165 61 156 3 -3 -2 -40 -10 -82 -20 -95 -20
-222 -1 -305 21 -88 85 -207 152 -280 30 -34 103 -101 162 -148 210 -171 258
-232 268 -343 11 -117 -46 -219 -151 -270 -36 -18 -66 -37 -66 -42 0 -39 91
-134 174 -183 165 -97 423 -86 594 25 130 83 202 173 252 309 69 187 61 388
-21 569 -16 36 -29 72 -29 81 1 26 -104 231 -117 231 -20 0 -16 -20 22 -99 20
-41 33 -77 29 -80 -8 -8 -59 53 -94 115 -46 79 -63 169 -58 309 3 84 9 129 20
150 l16 30 7 -40 c27 -161 87 -325 159 -434 77 -115 233 -251 387 -338 93 -52
188 -121 188 -139 1 -5 -8 -19 -18 -31 -15 -16 -37 -21 -109 -27 -116 -9 -178
-27 -235 -71 -80 -61 -122 -159 -134 -314 l-6 -84 -109 -174 c-112 -177 -157
-271 -177 -362 -26 -123 -5 -251 57 -342 l38 -55 -33 -73 c-18 -41 -33 -81
-33 -89 0 -9 21 -38 46 -64 l47 -47 -134 -87 c-126 -82 -399 -278 -463 -331
-27 -22 -33 -23 -117 -17 -100 8 -126 -2 -155 -59 -15 -28 -16 -59 -10 -272 7
-250 14 -315 44 -374 38 -79 135 -104 216 -57 77 45 115 149 123 337 l6 126
201 105 c110 58 282 148 381 198 305 157 367 201 382 273 5 25 68 86 77 76 2
-2 20 -44 41 -94 20 -49 59 -133 87 -185 196 -367 213 -398 260 -468 21 -30
35 -71 49 -145 35 -186 54 -205 177 -182 136 26 427 106 480 131 71 35 107 88
107 160 0 86 -44 129 -165 160 -72 18 -178 14 -284 -10 -53 -13 -59 -12 -63 3
-2 9 -68 209 -147 445 -137 414 -142 430 -124 448 23 23 18 35 -53 133 l-57
80 27 95 27 95 145 14 144 14 245 -56 c135 -31 305 -68 379 -83 l133 -26 44
31 44 31 33 -20 c42 -26 127 -26 184 -1 94 43 165 151 171 261 5 89 -11 142
-58 191 l-39 41 57 87 c32 47 90 132 130 187 69 98 81 125 64 151 -5 7 -111
24 -282 43 -151 17 -367 42 -479 56 -112 14 -210 24 -217 22 -8 -2 -63 -84
-123 -183 -60 -99 -115 -181 -122 -183 -9 -1 -35 41 -72 118 -42 87 -74 137
-115 182 -47 50 -52 60 -32 54 57 -17 234 -18 304 -2 110 26 216 87 291 169
106 114 152 232 170 437 6 72 8 76 36 89 17 7 52 41 79 75 198 247 233 652 85
972 -68 148 -205 313 -340 409 -230 165 -543 202 -775 92 -36 -17 -69 -33 -75
-35 -5 -3 3 9 19 26 37 40 144 96 219 115 66 17 72 21 62 36 -8 14 -38 13
-104 -5z m-1105 -550 l41 -26 -42 -62 c-56 -84 -95 -207 -102 -321 -6 -117
-15 -143 -64 -191 l-40 -39 -24 27 c-41 47 -67 134 -73 239 -9 179 45 313 153
380 43 27 103 24 151 -7z m1157 -198 c49 -102 107 -186 187 -267 70 -71 86
-80 97 -53 4 11 -13 33 -55 70 -63 56 -169 197 -152 202 5 2 35 -23 67 -55 32
-32 99 -87 148 -122 258 -185 465 -356 465 -385 0 -5 -13 -50 -29 -101 -32
-99 -42 -151 -66 -347 -29 -242 -109 -374 -278 -459 -133 -68 -276 -75 -467
-24 -258 70 -474 227 -565 411 -20 41 -40 74 -43 74 -4 0 -22 -4 -41 -10 -113
-32 -241 93 -241 235 0 72 79 165 139 165 50 0 69 -25 102 -133 18 -56 38
-108 45 -116 17 -19 34 -5 34 29 0 31 6 34 80 44 25 4 69 20 97 36 95 54 243
209 243 254 0 30 -29 16 -59 -27 -64 -94 -223 -217 -281 -217 -19 0 -8 11 50
50 85 56 135 101 201 180 139 166 236 371 269 568 6 39 13 72 15 72 1 0 19
-33 38 -74z m937 -1747 c355 -39 366 -40 381 -50 28 -17 -5 -28 -56 -18 -27 5
-176 25 -330 44 -270 34 -385 52 -385 61 0 5 67 -1 390 -37z m-1229 -11 c0 -7
0 -35 -1 -63 -2 -54 -13 -76 -31 -58 -16 16 -1 133 17 133 8 0 14 -6 15 -12z
m283 -44 c3 -8 2 -12 -4 -9 -6 3 -10 10 -10 16 0 14 7 11 14 -7z m554 -90 c72
-46 36 -171 -65 -231 -44 -26 -47 -26 -57 -8 -28 47 -71 85 -107 95 -21 6 -39
13 -39 17 0 13 64 109 79 118 59 36 140 40 189 9z m-958 -22 c28 -35 26 -84
-6 -122 -35 -41 -65 -37 -81 10 -15 44 -16 123 -3 136 17 17 69 3 90 -24z
m244 -8 c21 -8 21 -66 0 -130 -21 -62 -27 -68 -59 -60 -39 10 -75 53 -75 91 0
66 75 122 134 99z m1183 -25 c-54 -44 -45 -52 19 -18 59 31 87 35 128 19 49
-18 49 -40 -2 -114 -44 -64 -51 -70 -106 -87 -60 -18 -89 -14 -108 15 -14 20
-8 60 12 94 11 18 18 37 15 42 -9 14 15 55 38 67 40 20 42 13 4 -18z m-726
-156 c62 -33 89 -75 89 -139 0 -63 -30 -124 -86 -173 -56 -49 -98 -57 -188
-37 -48 12 -73 13 -87 6 -36 -20 -308 -42 -434 -37 -212 10 -278 46 -338 190
-18 45 -37 94 -40 108 -7 26 -6 26 70 33 140 11 136 13 156 -43 22 -64 70
-106 137 -120 55 -12 310 -15 373 -4 30 4 41 12 49 32 28 75 65 135 98 161 73
58 127 64 201 23z m-384 -121 l13 -32 -35 0 c-38 0 -41 6 -23 45 14 32 28 28
45 -13z m1246 -20 c69 -61 59 -211 -21 -295 -54 -57 -135 -82 -183 -57 -48 26
-64 132 -34 221 42 123 169 193 238 131z m-1364 -993 l78 -236 -120 -47 c-113
-45 -120 -46 -132 -29 -8 10 -46 90 -86 178 -39 88 -87 191 -105 229 -19 38
-33 70 -31 72 13 11 280 73 306 70 8 0 42 -90 90 -237z m-736 -3 c41 -13 99
-27 129 -31 48 -6 55 -9 51 -26 -3 -11 -21 -32 -40 -48 -38 -31 -483 -261
-504 -261 -13 1 -119 177 -119 197 0 5 75 59 167 120 l167 111 38 -19 c20 -10
70 -30 111 -43z m-500 -322 c27 -53 47 -97 45 -99 -21 -18 -264 -135 -276
-133 -42 8 -87 123 -61 155 19 23 222 172 234 173 6 0 32 -43 58 -96z m1401
-175 c44 -138 55 -184 46 -194 -12 -15 -93 -45 -121 -45 -28 0 -221 333 -202
350 12 12 175 69 199 69 18 1 27 -21 78 -180z m-1787 76 c8 -22 -19 -48 -88
-84 l-59 -32 0 46 c0 74 11 85 81 85 44 0 61 -4 66 -15z m77 -174 c25 -23 26
-30 26 -120 0 -137 -10 -165 -65 -186 -41 -16 -72 -16 -134 -1 -14 3 -28 9
-32 13 -3 5 -9 74 -12 154 l-6 147 77 50 77 50 22 -41 c11 -23 33 -53 47 -66z
m2088 -98 c31 -34 50 -159 30 -190 -4 -6 -74 -28 -155 -49 l-148 -37 -53 55
c-29 31 -67 63 -84 72 -18 9 -32 20 -32 25 0 5 21 14 47 20 59 15 100 37 129
67 39 43 237 70 266 37z m138 -11 c66 -32 62 -102 -9 -149 -50 -34 -56 -30
-57 40 -1 34 -8 79 -17 100 l-17 39 33 -7 c17 -4 48 -14 67 -23z m-502 -226
c40 -38 40 -52 0 -60 -40 -8 -54 5 -66 61 -15 65 -5 64 66 -1z m-1828 -21 c19
0 47 4 63 8 34 9 36 -10 7 -58 -51 -83 -141 -62 -164 38 -7 28 -6 29 26 21 18
-5 49 -9 68 -9z"/>
<path d="M3688 4628 c-36 -21 -57 -52 -43 -66 3 -3 14 -1 23 6 45 33 86 44
118 33 41 -15 54 -14 54 5 0 17 -57 44 -92 44 -13 0 -40 -10 -60 -22z"/>
<path d="M4274 4579 c-9 -15 6 -27 41 -31 21 -2 36 -13 50 -35 11 -18 27 -32
35 -30 27 4 21 34 -13 71 -27 28 -42 36 -70 36 -20 0 -39 -5 -43 -11z"/>
<path d="M3605 4420 c-4 -6 -1 -17 5 -25 7 -8 9 -26 6 -40 -7 -26 -20 -32 -31
-15 -10 16 -75 12 -75 -4 0 -17 22 -26 62 -26 21 0 39 -10 59 -31 35 -38 68
-36 88 6 20 41 20 100 1 100 -8 0 -17 9 -20 20 -4 15 -16 21 -47 23 -23 2 -44
-2 -48 -8z"/>
<path d="M4230 4360 c-15 -30 -20 -56 -18 -98 3 -54 5 -57 30 -60 21 -3 30 3
42 27 9 16 16 37 16 46 0 9 14 29 32 45 27 25 29 31 18 45 -7 8 -21 13 -30 10
-11 -3 -20 1 -24 10 -11 29 -45 17 -66 -25z"/>
<path d="M4031 4281 c-20 -36 -12 -96 18 -155 l30 -56 -25 0 c-27 0 -33 -24
-8 -34 27 -10 51 -7 64 9 11 13 8 26 -15 75 -21 43 -29 76 -29 117 -1 60 -17
79 -35 44z"/>
<path d="M3763 3964 c-10 -27 6 -106 31 -148 50 -86 167 -114 247 -61 63 41
122 149 87 159 -23 7 -336 66 -348 66 -6 0 -13 -7 -17 -16z m172 -73 c55 -12
110 -24 123 -27 l23 -5 -22 -30 c-30 -43 -63 -61 -109 -61 -61 1 -121 48 -138
107 -10 33 -6 49 12 42 6 -2 56 -14 111 -26z"/>
<path d="M448 591 c-26 -14 -48 -28 -48 -31 0 -3 20 -16 45 -29 40 -21 105
-97 105 -123 0 -17 19 -7 26 15 3 12 12 29 19 37 17 21 15 50 -3 42 -10 -3
-13 -1 -8 6 7 12 -41 68 -56 64 -6 -2 -8 4 -4 13 3 9 2 13 -3 10 -6 -3 -13 1
-18 9 -7 11 -17 9 -55 -13z"/>
</g>
</svg>
