<?xml version="1.0" standalone="no"?>
<!DOCTYPE svg PUBLIC "-//W3C//DTD SVG 20010904//EN"
 "http://www.w3.org/TR/2001/REC-SVG-20010904/DTD/svg10.dtd">
<svg version="1.0" xmlns="http://www.w3.org/2000/svg"
 width="1024.000000pt" height="1024.000000pt" viewBox="0 0 1024.000000 1024.000000"
 preserveAspectRatio="xMidYMid meet">

<g transform="translate(0.000000,1024.000000) scale(0.100000,-0.100000)"
fill="#000000" stroke="none">
<path d="M7000 9373 c-107 -21 -110 -22 -110 -42 0 -11 7 -27 16 -35 14 -14
18 -14 47 1 38 20 42 21 132 29 75 6 95 16 95 45 0 16 -7 19 -57 17 -32 -1
-87 -8 -123 -15z"/>
<path d="M7296 9383 c-3 -4 -6 -17 -6 -29 0 -27 34 -41 55 -24 10 8 19 8 34 1
26 -14 111 -3 111 15 0 19 -17 27 -64 30 -23 1 -60 5 -83 8 -22 2 -44 2 -47
-1z"/>
<path d="M7590 9335 c-20 -24 -8 -50 25 -52 52 -3 157 -33 248 -70 75 -31 91
-34 113 -24 33 15 28 39 -13 62 -55 31 -195 76 -270 88 -90 14 -88 14 -103 -4z"/>
<path d="M6685 9292 c-54 -21 -70 -32 -70 -47 0 -17 6 -20 44 -17 49 3 131 35
131 51 0 19 -12 41 -24 41 -6 -1 -42 -13 -81 -28z"/>
<path d="M8283 9220 c-93 -24 -145 -52 -205 -108 -53 -49 -78 -88 -78 -121 0
-12 -12 -28 -27 -38 -97 -60 -155 -173 -169 -333 -6 -65 -5 -69 25 -103 18
-19 56 -45 86 -58 59 -24 70 -45 48 -90 -7 -15 -27 -39 -45 -54 -79 -65 -78
-109 2 -209 68 -84 135 -143 198 -175 88 -45 87 -45 142 4 28 25 62 52 75 61
31 20 41 13 85 -60 30 -49 36 -53 95 -69 110 -30 188 -19 322 45 95 44 96 47
67 118 -28 70 -30 107 -8 139 15 20 22 22 58 16 71 -12 110 -13 127 -4 22 11
72 132 94 227 20 80 17 241 -4 266 -6 8 -33 17 -59 20 -100 15 -102 22 -37
118 25 37 45 78 45 91 0 31 -46 100 -126 186 -63 68 -129 111 -171 111 -12 0
-58 -32 -104 -71 l-82 -71 -61 5 c-66 6 -77 15 -117 97 -43 88 -54 92 -176 60z
m67 -102 c12 -18 32 -58 47 -89 l26 -56 101 -7 c56 -3 115 -9 133 -12 28 -5
33 -2 47 24 17 32 114 142 125 142 26 0 201 -198 201 -226 0 -9 -27 -44 -60
-78 -33 -35 -60 -69 -59 -77 0 -8 15 -43 32 -79 32 -65 32 -65 77 -67 111 -5
105 -1 108 -66 3 -54 -12 -130 -40 -201 -11 -28 -12 -28 -72 -21 -34 3 -74 9
-89 12 -23 5 -34 -1 -67 -36 -76 -79 -93 -140 -68 -238 10 -43 10 -47 -13 -64
-29 -23 -127 -61 -154 -61 -67 1 -105 23 -105 61 0 9 -9 35 -19 58 -19 42 -88
93 -125 93 -25 0 -116 -48 -154 -81 -18 -16 -40 -29 -50 -29 -23 0 -172 158
-172 182 0 11 18 45 40 78 54 80 75 133 61 159 -6 11 -11 28 -11 39 0 29 -33
52 -117 82 -43 15 -82 34 -87 43 -12 19 4 71 53 169 47 94 58 100 119 67 38
-21 51 -24 68 -15 21 11 21 12 3 76 -27 98 -26 108 31 160 40 38 128 86 163
89 4 1 16 -14 27 -31z"/>
<path d="M8420 8703 c-65 -22 -93 -45 -122 -100 -36 -67 -42 -114 -24 -177 23
-77 65 -129 131 -161 48 -24 63 -27 111 -21 71 8 111 25 159 67 100 88 99 234
-3 342 -60 63 -158 83 -252 50z m176 -89 c54 -37 63 -52 64 -107 0 -125 -94
-194 -220 -160 -44 11 -60 41 -60 114 0 97 69 176 156 178 12 1 39 -11 60 -25z"/>
<path d="M2647 9214 c-4 -4 -7 -20 -7 -36 0 -26 3 -28 38 -27 20 0 57 4 82 7
40 6 45 10 45 32 0 24 -2 25 -75 28 -42 1 -79 0 -83 -4z"/>
<path d="M6424 9189 c-79 -42 -82 -45 -56 -71 19 -20 24 -21 49 -8 47 23 93
60 93 74 0 8 -6 19 -14 25 -10 8 -27 4 -72 -20z"/>
<path d="M2944 9195 c-13 -33 4 -45 66 -47 123 -4 115 -5 115 22 0 29 -24 38
-113 39 -47 1 -64 -3 -68 -14z"/>
<path d="M2480 9180 c-14 -4 -39 -8 -56 -9 -16 -1 -39 -7 -49 -15 -18 -13 -18
-14 8 -40 21 -21 30 -24 49 -16 13 5 42 14 66 20 34 9 42 15 42 34 0 18 -22
42 -33 35 -1 -1 -13 -5 -27 -9z"/>
<path d="M3252 9158 c-25 -25 -11 -48 32 -54 12 -2 36 -6 55 -8 19 -3 49 -11
68 -17 42 -13 65 0 47 28 -11 18 -23 22 -114 43 -30 7 -60 15 -65 17 -6 2 -16
-2 -23 -9z"/>
<path d="M1115 9095 c-102 -35 -224 -103 -272 -150 -36 -36 -37 -27 14 -168
l25 -68 -23 -45 c-49 -93 -67 -107 -170 -129 -113 -24 -117 -29 -125 -167 -7
-99 13 -234 43 -291 l15 -29 81 8 c134 13 124 15 158 -47 l30 -56 -30 -49
c-52 -80 -37 -157 46 -235 58 -56 245 -139 312 -139 28 0 101 63 101 88 0 7 1
12 3 12 1 0 49 9 106 20 l104 20 61 -48 c123 -96 118 -94 167 -77 94 33 269
191 269 242 -1 40 -32 103 -68 140 -35 34 -40 67 -17 99 11 16 30 23 75 28 90
10 102 19 124 84 38 116 31 217 -26 365 l-23 57 -65 0 c-92 0 -107 6 -121 49
-24 73 -20 94 27 152 61 73 64 90 24 136 -98 115 -257 217 -352 228 l-47 6
-22 -43 c-12 -24 -37 -67 -55 -95 l-34 -53 -64 0 -65 0 -15 53 c-8 28 -19 68
-23 87 -13 51 -53 55 -168 15z m567 -81 c71 -61 198 -196 198 -211 0 -6 -4
-15 -10 -18 -5 -3 -26 -33 -45 -67 l-36 -61 18 -36 c9 -20 22 -60 28 -90 l11
-54 106 2 c95 2 107 0 112 -16 11 -40 24 -181 21 -233 -4 -64 -28 -90 -82 -90
-57 0 -91 -49 -121 -178 -9 -40 -7 -46 29 -103 22 -33 39 -68 39 -79 0 -16
-154 -169 -181 -178 -5 -2 -28 15 -51 37 -22 23 -45 41 -50 41 -5 0 -25 12
-44 26 l-35 27 -77 -21 c-44 -12 -112 -22 -157 -23 -78 -2 -81 -2 -120 -40
l-41 -39 -73 25 c-86 29 -148 64 -202 112 l-39 35 24 40 c13 22 40 57 61 79
42 45 42 46 -16 154 -57 104 -55 104 -172 92 -61 -7 -101 -7 -107 -1 -5 5 -11
75 -12 154 l-3 145 90 8 c49 4 95 13 103 19 7 7 25 32 38 57 13 25 42 78 64
118 l40 72 -30 76 c-16 41 -30 82 -30 90 0 8 21 28 48 45 50 32 206 85 221 76
5 -3 15 -30 21 -58 7 -29 19 -70 27 -90 14 -36 17 -38 52 -33 43 7 112 13 162
14 36 1 37 3 95 111 32 60 62 110 66 110 4 0 31 -21 60 -46z"/>
<path d="M1267 8533 c-196 -66 -262 -342 -117 -492 58 -60 112 -84 200 -89
178 -10 306 105 318 284 4 62 1 79 -23 133 -67 148 -223 215 -378 164z m161
-78 c81 -24 152 -126 152 -217 0 -76 -66 -160 -143 -183 -114 -34 -228 21
-272 132 -14 34 -15 51 -6 98 18 97 64 151 146 173 56 14 65 14 123 -3z"/>
<path d="M2215 9112 c-27 -8 -65 -20 -83 -28 -18 -8 -40 -14 -50 -14 -29 -1
-117 -54 -120 -74 -6 -28 13 -42 40 -28 28 13 138 54 193 71 67 21 85 33 85
57 0 31 -7 33 -65 16z"/>
<path d="M3546 9074 c-9 -23 5 -44 29 -44 13 0 26 -4 30 -9 3 -5 30 -22 60
-37 41 -21 58 -25 66 -17 20 20 1 42 -63 71 -113 52 -116 52 -122 36z"/>
<path d="M6190 9049 c-51 -34 -59 -62 -20 -67 35 -4 104 55 95 81 -10 24 -23
21 -75 -14z"/>
<path d="M3783 8929 c-18 -37 -33 -72 -33 -77 0 -5 44 -12 97 -15 128 -7 139
1 81 60 -24 25 -59 57 -78 73 l-35 28 -32 -69z"/>
<path d="M6112 8993 c-6 -3 -9 -9 -6 -15 4 -6 -1 -8 -14 -4 -24 8 -79 -34 -68
-52 13 -21 46 -13 81 21 33 30 37 60 7 50z"/>
<path d="M5890 8835 c-6 -8 -32 -27 -56 -42 -45 -29 -55 -49 -29 -59 25 -10
58 4 104 45 39 34 43 41 32 55 -17 20 -35 20 -51 1z"/>
<path d="M5601 8564 c-50 -57 -60 -77 -42 -88 9 -6 84 41 125 79 33 31 31 59
-5 63 -21 2 -37 -8 -78 -54z"/>
<path d="M7215 8179 c-107 -12 -237 -54 -374 -120 -352 -168 -582 -402 -791
-802 -110 -212 -171 -402 -210 -652 -22 -142 -24 -226 -10 -324 10 -71 23 -92
42 -73 9 9 12 43 9 116 -3 106 6 146 34 146 15 0 20 -21 30 -127 13 -137 62
-267 168 -441 100 -164 114 -226 75 -329 -16 -44 -37 -73 -86 -121 l-64 -62
38 -17 c28 -13 65 -18 134 -17 175 0 297 58 382 182 21 30 33 41 40 34 16 -16
0 -62 -30 -86 -84 -67 -149 -144 -175 -206 -98 -237 -138 -354 -129 -374 12
-27 -23 -96 -49 -96 -10 0 -33 19 -52 42 -43 54 -194 277 -231 341 l-27 47 25
74 c31 90 33 159 6 203 -24 40 -63 52 -90 28 -22 -20 -13 -23 -100 43 -67 50
-100 44 -197 -38 -7 -6 -13 -25 -13 -41 0 -17 -9 -44 -21 -60 -14 -19 -19 -39
-16 -56 3 -15 -3 -39 -15 -58 -23 -39 -17 -70 19 -109 33 -36 115 -74 176 -82
44 -6 50 -10 69 -48 44 -87 203 -346 276 -449 75 -108 131 -157 178 -157 40 0
127 52 186 110 33 34 62 59 64 58 1 -2 10 -45 19 -96 l16 -93 -35 -163 c-20
-90 -40 -176 -46 -191 -6 -15 -8 -42 -4 -60 3 -20 -1 -56 -10 -88 -27 -92 -22
-120 25 -161 100 -85 276 -145 519 -175 135 -17 184 -18 375 -11 131 5 247 15
288 24 81 19 162 58 181 89 10 16 15 79 20 239 5 181 9 225 25 266 29 73 49
182 57 309 l7 113 34 20 c18 11 36 26 39 34 8 20 -43 371 -67 465 -28 108 -64
167 -135 216 -45 31 -66 54 -86 95 -29 57 -48 150 -31 150 5 0 26 -23 47 -51
45 -60 109 -103 193 -129 69 -21 218 -29 235 -12 7 7 -1 32 -25 81 -49 97 -66
236 -21 173 26 -37 34 -25 34 52 0 113 24 213 84 354 83 197 99 265 132 567
23 214 10 331 -61 520 -68 181 -138 315 -219 416 -41 51 -73 95 -71 97 8 9
104 -60 142 -101 63 -68 99 -127 182 -297 129 -262 174 -432 169 -635 -3 -117
-2 -120 20 -123 37 -5 45 35 39 198 -7 211 -47 347 -177 615 -111 230 -215
359 -400 498 -52 39 -138 113 -192 163 -90 87 -101 94 -176 118 -132 41 -252
52 -397 35z m-241 -841 c-4 -7 -43 -71 -87 -142 -91 -148 -107 -184 -86 -197
52 -32 165 24 282 141 66 67 87 83 83 64 -13 -48 -53 -130 -89 -177 -51 -66
-48 -108 4 -54 51 52 100 144 130 243 18 57 37 104 44 104 6 0 28 -39 50 -87
72 -164 242 -478 375 -693 107 -173 103 -163 95 -234 -6 -59 -1 -96 14 -96 4
0 25 27 46 61 44 67 87 99 133 99 37 0 56 -18 72 -66 34 -102 -43 -319 -126
-359 -33 -15 -40 -16 -73 -3 l-37 15 -35 -66 c-48 -94 -183 -228 -270 -269
-199 -95 -456 -102 -709 -20 -104 33 -180 77 -234 132 -69 70 -101 133 -131
257 l-26 104 17 213 c15 178 16 229 6 310 -21 168 -14 198 56 245 120 79 323
279 451 445 30 38 62 60 45 30z m-619 -917 c3 -10 1 -78 -5 -152 -5 -74 -10
-142 -10 -152 0 -29 -41 -41 -83 -24 -50 21 -70 64 -75 163 -7 127 19 180 96
194 43 8 68 -2 77 -29z m-604 -876 c25 -19 55 -48 67 -65 27 -37 49 -38 64 -5
6 14 17 25 24 25 30 0 32 -73 3 -150 -33 -90 -33 -91 11 -174 58 -110 210
-333 263 -384 54 -53 81 -53 114 -2 45 71 51 77 63 60 5 -8 10 -26 10 -38 0
-14 13 -36 30 -52 17 -15 30 -32 30 -37 0 -18 -116 -124 -159 -145 -40 -19
-47 -20 -70 -7 -14 8 -48 45 -76 81 -71 95 -227 343 -274 435 -40 80 -82 130
-100 119 -10 -7 -135 25 -169 43 -21 11 -38 48 -28 59 4 3 21 1 38 -6 64 -24
64 28 0 58 -22 10 -32 22 -32 38 0 39 28 38 71 -4 34 -34 41 -36 54 -23 13 12
8 22 -40 76 -59 66 -67 88 -35 98 24 8 50 -10 50 -33 0 -19 59 -82 77 -82 25
0 13 39 -27 85 -61 71 -35 90 41 30z m1186 -78 c3 -3 -11 -25 -30 -48 -52 -60
-58 -112 -22 -184 39 -80 116 -131 230 -149 105 -18 262 39 345 124 74 76 133
210 93 210 -5 0 -16 -21 -25 -47 -37 -101 -130 -194 -235 -233 -48 -18 -74
-21 -148 -18 -76 3 -98 8 -144 33 -31 17 -64 45 -79 67 -21 32 -24 46 -20 98
3 39 10 67 21 77 16 16 17 16 17 -11 0 -43 46 -82 106 -90 103 -15 263 45 356
131 l49 46 52 -12 c72 -16 232 -107 289 -162 36 -36 51 -61 67 -113 24 -77 76
-407 68 -428 -8 -22 -141 -50 -222 -46 l-70 3 -2 65 c-4 105 -24 283 -35 304
-23 42 -29 -3 -18 -135 6 -74 11 -165 13 -204 l2 -70 35 -5 35 -5 3 -93 c7
-222 -53 -324 -201 -339 -80 -8 -90 1 -105 94 -27 170 -115 603 -126 618 -13
18 -93 21 -499 18 l-278 -3 -25 -27 -25 -27 -20 21 -20 20 62 162 c73 190 109
255 164 293 68 48 313 94 342 65z m258 -604 c4 -16 10 -46 15 -68 12 -55 100
-534 100 -546 0 -5 -9 -9 -20 -9 -15 0 -20 7 -20 30 0 74 -39 190 -65 190 -17
0 -36 16 -38 31 -2 8 -6 20 -11 27 -4 7 -3 19 4 27 14 17 2 25 -31 18 -15 -3
-32 -16 -39 -29 -7 -13 -22 -26 -32 -30 -19 -6 -21 -40 -2 -38 5 1 25 5 44 8
31 5 32 5 10 -5 -14 -6 -38 -11 -55 -11 -16 0 -34 -3 -39 -6 -6 -3 -21 -7 -35
-9 -46 -5 -50 -6 -46 -13 3 -4 -4 -15 -15 -25 -11 -10 -20 -31 -20 -46 0 -16
-7 -32 -17 -38 -18 -9 -19 -19 -25 -153 -2 -31 4 -45 32 -73 64 -66 116 -83
283 -90 82 -4 145 -11 140 -15 -7 -8 -239 0 -523 18 l-115 7 -37 185 c-21 102
-36 192 -34 200 2 8 4 5 5 -8 0 -13 5 -20 11 -17 5 3 7 0 4 -9 -3 -8 -1 -23 5
-33 8 -14 9 -4 7 41 -3 43 -1 54 6 42 9 -16 12 -16 28 10 13 19 16 33 10 44
-5 10 -7 20 -4 23 3 3 1 14 -5 24 -9 16 -11 14 -12 -12 -1 -16 -1 -34 0 -38 1
-5 -3 -6 -8 -3 -5 4 -12 2 -16 -4 -4 -6 -11 -8 -16 -5 -5 4 -13 -4 -18 -17 -6
-14 -10 -17 -10 -7 -1 9 2 19 6 23 14 13 31 76 22 82 -15 9 -10 26 6 20 8 -3
15 -1 15 4 0 6 -7 10 -15 10 -8 0 -15 4 -15 9 0 5 -6 11 -14 14 -12 5 -14 -6
-10 -60 4 -73 -4 -83 -10 -12 -2 24 -7 51 -10 59 -10 27 -50 224 -50 252 -1
14 -4 24 -8 21 -5 -2 -8 3 -8 11 0 13 13 16 70 16 39 0 70 -4 70 -9 0 -5 -18
-7 -40 -4 -34 5 -40 3 -40 -13 0 -16 -2 -17 -11 -4 -8 11 -9 8 -4 -14 5 -26 4
-28 -9 -17 -10 8 -16 9 -16 3 0 -6 5 -14 10 -17 6 -4 8 -10 5 -15 -6 -10 5
-40 15 -40 4 0 7 6 6 13 -1 15 4 17 60 17 40 0 45 -2 34 -15 -10 -12 -9 -21 3
-48 13 -26 14 -34 4 -42 -23 -17 -27 -44 -10 -60 18 -19 31 -12 14 9 -9 11 -8
15 3 19 17 7 26 -1 26 -24 0 -27 11 -29 66 -15 48 12 49 13 19 20 l-30 8 28
10 c28 10 36 33 15 41 -9 3 -6 11 9 24 31 27 64 19 84 -20 9 -18 26 -34 42
-38 32 -9 57 -32 57 -53 0 -9 7 -16 15 -16 12 0 14 4 5 19 -5 11 -15 23 -20
26 -6 4 -4 14 4 28 8 12 16 33 18 47 3 21 -1 25 -22 22 -19 -2 -22 0 -10 8 13
8 12 10 -2 10 -34 0 -18 15 17 16 22 0 31 -3 23 -8 -7 -4 -8 -8 -3 -8 6 0 17
5 25 10 22 14 0 31 -43 33 -36 2 -43 9 -63 62 -4 11 -7 22 -6 25 0 3 -38 7
-86 9 -164 5 -95 11 131 11 l227 0 5 -27z m-291 -10 c6 -16 1 -16 -25 -3 -15
8 -19 8 -17 -2 2 -9 -9 -13 -34 -14 -26 -1 -35 3 -31 12 3 9 14 12 32 8 20 -4
23 -3 11 5 -12 9 -7 11 22 9 21 -1 40 -8 42 -15z m-147 -19 c-3 -3 -12 -4 -19
-1 -8 3 -5 6 6 6 11 1 17 -2 13 -5z m157 -13 c4 -5 -1 -8 -9 -7 -21 3 -31 16
-12 16 9 0 18 -4 21 -9z m-254 -13 c0 -4 -4 -8 -9 -8 -6 0 -12 4 -15 8 -3 5 1
9 9 9 8 0 15 -4 15 -9z m60 -27 c0 -6 -4 -13 -10 -16 -5 -3 -10 1 -10 9 0 9 5
16 10 16 6 0 10 -4 10 -9z m-3 -93 c-3 -7 -5 -2 -5 12 0 14 2 19 5 13 2 -7 2
-19 0 -25z m43 12 c0 -5 -5 -10 -11 -10 -5 0 -7 5 -4 10 3 6 8 10 11 10 2 0 4
-4 4 -10z m-40 -75 c0 -8 -4 -15 -10 -15 -5 0 -10 7 -10 15 0 8 5 15 10 15 6
0 10 -7 10 -15z m1122 -62 c12 -228 -73 -419 -213 -477 -84 -35 -139 -38 -371
-21 -243 17 -270 23 -310 60 -36 34 -43 61 -23 92 14 21 15 29 5 48 -10 20 -8
29 15 69 42 71 70 69 178 -14 30 -24 57 -21 57 6 0 9 -16 31 -36 49 -30 27
-32 33 -18 39 26 10 53 -3 69 -34 19 -37 19 -84 0 -100 -19 -16 -19 -54 -1
-69 20 -17 181 -34 257 -28 111 9 192 55 230 129 18 36 38 159 39 245 0 18 7
23 38 26 83 8 82 9 84 -20z m-1246 -447 c20 -101 34 -146 50 -165 l22 -26 331
-4 c183 -1 342 0 355 3 13 3 29 18 35 33 11 27 13 28 79 25 88 -5 157 11 227
53 32 19 59 35 61 35 4 0 2 -243 -3 -263 -2 -9 -31 -31 -63 -47 -66 -33 -179
-55 -330 -65 -52 -3 -107 -8 -122 -11 -39 -8 -296 23 -423 51 -81 18 -138 38
-215 77 l-105 53 1 40 c0 22 13 120 27 219 15 98 27 181 28 185 2 11 16 -51
45 -193z"/>
<path d="M7292 6878 c2 -15 16 -29 38 -39 38 -18 55 -16 65 9 8 22 -13 39 -63
46 -41 6 -43 5 -40 -16z"/>
<path d="M6563 6820 c-44 -19 -53 -36 -31 -58 19 -19 37 -14 79 19 69 54 39
78 -48 39z"/>
<path d="M7295 6678 c-49 -18 -86 -49 -102 -86 -13 -32 -13 -36 8 -58 30 -32
36 -30 56 10 29 61 80 66 123 13 21 -26 61 -17 79 17 16 28 8 46 -20 46 -13 0
-20 6 -18 18 3 35 -1 41 -33 39 -18 0 -40 2 -48 5 -8 4 -28 2 -45 -4z"/>
<path d="M6568 6620 c-17 -16 -34 -30 -39 -30 -17 0 -20 -42 -5 -65 21 -32 49
-32 70 0 32 48 51 49 95 5 35 -35 43 -39 61 -30 11 6 20 20 20 31 0 24 -61 89
-83 89 -8 0 -20 7 -27 15 -20 24 -57 18 -92 -15z"/>
<path d="M6930 6552 c0 -5 7 -31 15 -58 32 -107 12 -189 -56 -219 -21 -10 -39
-24 -39 -31 0 -18 58 -64 80 -64 24 0 34 16 18 27 -13 8 -18 9 -38 12 -20 2
-9 21 21 36 39 21 59 69 59 142 -1 63 -28 154 -47 161 -7 2 -13 0 -13 -6z"/>
<path d="M7230 6121 c-19 -10 -83 -35 -142 -55 -84 -29 -129 -38 -215 -44
l-108 -7 3 -33 c6 -76 95 -208 165 -244 60 -31 176 -31 233 -1 92 49 140 141
151 290 8 114 -10 134 -87 94z m36 -83 c-4 -18 -12 -38 -19 -44 -21 -21 -220
-68 -300 -72 -60 -3 -84 0 -103 12 -37 25 -31 46 15 46 64 0 201 28 291 59
115 40 124 40 116 -1z m-19 -144 c-15 -92 -79 -139 -182 -132 -45 3 -50 5 -48
25 5 48 46 93 98 108 28 9 57 20 65 25 8 5 28 10 44 10 27 0 28 -2 23 -36z"/>
<path d="M6926 4871 c-4 -5 -2 -12 3 -15 5 -4 12 -2 15 3 4 5 2 12 -3 15 -5 4
-12 2 -15 -3z"/>
<path d="M6972 4872 c-9 -3 -4 -9 12 -17 30 -16 54 -14 67 6 7 10 8 7 3 -11
-6 -23 -6 -24 12 -10 15 11 16 11 7 0 -15 -17 -17 -54 -3 -45 6 4 8 10 5 15
-3 5 -1 11 5 15 9 6 14 -7 11 -27 0 -4 9 -12 22 -18 19 -10 20 -9 6 2 -20 16
-8 58 16 58 9 0 13 5 10 10 -4 7 -12 7 -25 0 -13 -7 -19 -6 -24 6 -3 8 -2 12
4 9 5 -3 18 -1 27 4 14 8 7 10 -30 9 -31 -1 -51 -6 -54 -15 -4 -10 -9 -11 -19
-2 -7 6 -17 8 -23 5 -5 -3 -11 -2 -13 2 -1 5 -9 7 -16 4z"/>
<path d="M7002 4810 c-7 -11 -8 -20 -3 -20 5 0 11 7 15 15 3 8 10 15 17 15 6
0 9 -7 6 -15 -4 -8 0 -27 8 -42 10 -18 15 -22 15 -11 0 9 6 18 13 21 6 2 4 3
-5 2 -14 -2 -18 4 -18 26 0 35 -28 40 -48 9z"/>
<path d="M7208 4645 c6 -11 15 -36 21 -55 l11 -35 -6 40 c-3 22 -12 47 -21 55
-14 13 -14 13 -5 -5z"/>
<path d="M6820 4633 c0 -5 5 -15 10 -23 9 -13 11 -13 20 0 15 22 12 30 -10 30
-11 0 -20 -3 -20 -7z"/>
<path d="M6881 4571 c-1 -10 -13 -12 -52 -9 -29 3 -45 2 -37 -3 7 -5 30 -9 51
-9 35 0 37 -2 37 -31 0 -35 15 -35 38 -1 13 19 13 22 0 22 -8 0 -20 10 -26 23
-6 12 -11 16 -11 8z"/>
<path d="M6670 4555 c-14 -16 -10 -18 14 -9 9 3 16 10 16 15 0 14 -16 11 -30
-6z"/>
<path d="M7211 4554 c0 -11 3 -14 6 -6 3 7 2 16 -1 19 -3 4 -6 -2 -5 -13z"/>
<path d="M6728 4473 c7 -3 16 -2 19 1 4 3 -2 6 -13 5 -11 0 -14 -3 -6 -6z"/>
<path d="M6941 4467 c-8 -10 -7 -14 2 -14 8 0 14 6 14 14 0 7 -1 13 -2 13 -2
0 -8 -6 -14 -13z"/>
<path d="M6700 4410 c0 -5 7 -10 15 -10 8 0 15 5 15 10 0 6 -7 10 -15 10 -8 0
-15 -4 -15 -10z"/>
<path d="M6815 4261 c-3 -5 -2 -12 3 -15 5 -3 9 1 9 9 0 17 -3 19 -12 6z"/>
<path d="M9123 8125 c-29 -20 -20 -41 25 -56 39 -13 166 -134 177 -169 8 -24
28 -26 45 -5 16 20 6 41 -61 123 -77 93 -148 134 -186 107z"/>
<path d="M2970 8060 c-166 -34 -332 -91 -478 -164 -39 -20 -80 -36 -90 -36
-53 0 -412 -333 -523 -485 -119 -164 -209 -420 -240 -686 -18 -159 -6 -496 25
-703 29 -197 41 -238 64 -234 21 4 21 35 -2 158 -10 52 -20 154 -23 227 -5
115 -4 136 12 159 9 14 20 22 25 18 4 -5 13 -52 20 -104 25 -191 101 -438 181
-588 140 -263 364 -431 574 -432 62 0 80 -5 157 -42 48 -24 88 -46 88 -50 0
-3 -31 -27 -70 -53 -85 -57 -161 -140 -201 -220 -36 -73 -71 -212 -94 -365 -9
-63 -27 -149 -40 -190 -61 -196 -153 -559 -176 -693 -11 -65 -10 -69 11 -92
l23 -25 -36 -157 c-20 -87 -45 -216 -57 -288 -11 -71 -31 -150 -42 -175 -14
-27 -21 -59 -19 -82 4 -55 -75 -195 -151 -269 -32 -30 -58 -64 -58 -75 0 -43
-49 -93 -133 -135 -188 -93 -209 -153 -137 -403 22 -77 56 -212 76 -300 55
-245 79 -286 178 -294 47 -4 62 0 101 22 89 53 203 249 249 431 12 47 15 50
42 47 46 -5 185 87 280 184 44 45 109 124 145 174 109 157 99 164 94 -61 -3
-129 0 -225 9 -284 l13 -88 -34 -66 c-53 -105 -65 -229 -27 -288 35 -55 84
-65 449 -94 280 -22 321 -21 392 11 102 45 112 183 20 261 -12 11 -66 46 -120
80 l-97 61 19 32 c29 46 61 156 60 201 -1 22 14 114 33 205 59 274 72 410 70
695 -1 236 -7 324 -33 523 l-11 84 27 28 c32 33 33 49 22 243 -5 75 -7 137 -4
137 3 0 24 -25 47 -55 95 -123 286 -225 422 -225 41 0 54 -5 87 -35 74 -68
180 -96 273 -75 78 18 177 70 221 114 l38 40 267 -48 c267 -47 438 -70 454
-60 21 13 41 80 102 344 62 272 189 893 202 992 10 72 -9 93 -93 107 -71 12
-411 58 -846 116 -142 19 -305 42 -363 50 -142 21 -173 18 -199 -21 -11 -16
-29 -66 -38 -110 -33 -141 -33 -142 -80 -149 -119 -20 -202 -114 -227 -257
l-11 -64 -77 -56 c-42 -30 -105 -71 -140 -91 l-63 -37 -9 26 c-13 33 -13 31
12 67 l22 30 -18 126 c-36 254 -65 351 -132 443 -25 34 -32 49 -22 52 7 3 40
12 73 21 97 27 173 74 256 157 184 183 229 407 150 750 -18 82 -31 166 -31
206 0 60 4 74 36 125 19 31 39 57 44 57 5 0 15 -9 23 -20 22 -31 35 -7 60 107
29 135 31 484 4 611 -49 226 -135 395 -281 551 -177 188 -441 296 -739 304
-93 2 -97 3 -77 19 12 9 47 27 78 39 49 20 77 23 207 23 129 1 162 -2 235 -23
121 -34 140 -36 140 -18 0 24 -36 45 -140 79 -86 28 -109 31 -240 34 -80 2
-165 -1 -190 -6z m263 -1432 c0 -43 -10 -93 -32 -157 -17 -51 -30 -96 -27 -98
7 -7 42 49 67 107 24 57 32 150 15 203 -6 19 -5 27 4 27 18 0 388 -148 441
-177 73 -39 75 -50 44 -189 -33 -145 -30 -212 16 -406 45 -188 45 -295 -1
-431 -54 -160 -144 -278 -253 -331 -116 -57 -330 -72 -508 -36 -201 41 -401
128 -428 187 -12 27 -51 39 -79 24 -31 -16 -90 -13 -123 6 -100 59 -98 303 3
388 41 35 68 32 164 -21 47 -25 91 -43 99 -40 9 3 15 19 15 41 0 42 20 64 125
135 74 50 213 189 265 266 45 64 97 178 119 259 24 86 51 242 51 292 0 29 3
34 12 25 7 -7 12 -39 11 -74z m1032 -1626 c6 -4 10 -14 10 -22 0 -10 12 -16
33 -18 23 -2 32 1 32 12 0 25 14 26 121 11 57 -8 110 -15 117 -15 7 0 12 -7
10 -16 -2 -10 3 -19 10 -21 6 -3 12 2 12 11 0 17 49 22 108 10 28 -6 29 -8 16
-21 -28 -28 -13 -48 39 -51 58 -4 75 19 36 51 l-24 20 30 -6 c17 -4 125 -20
240 -37 385 -56 369 -53 374 -75 4 -26 19 -35 58 -35 20 0 36 6 41 17 14 24
44 9 38 -19 -3 -13 -21 -95 -41 -183 -20 -88 -60 -272 -90 -410 -72 -332 -141
-635 -147 -640 -2 -3 -56 4 -119 15 -63 10 -199 33 -304 49 -104 17 -278 47
-385 66 -107 20 -283 51 -391 70 -225 39 -252 48 -245 73 2 9 24 108 47 220
l43 202 54 0 c52 0 54 -1 48 -22 -18 -63 -76 -308 -76 -322 0 -8 9 -20 20 -26
11 -6 138 -31 282 -55 918 -157 886 -153 922 -139 20 8 34 56 96 334 27 124
76 332 107 463 50 209 55 239 42 252 -10 10 -124 30 -364 64 -193 28 -433 64
-535 80 -102 17 -207 32 -235 33 l-49 3 -13 -50 c-7 -27 -15 -62 -18 -78 -5
-27 -6 -27 -34 -13 l-29 15 26 106 c25 99 28 105 52 105 14 0 30 -4 35 -8z
m-1480 -51 c10 -60 69 -147 121 -177 50 -30 50 -14 10 -209 l-23 -110 -21 70
c-26 85 -55 242 -47 254 9 16 -7 41 -26 41 -18 0 -19 -5 -14 -67 11 -115 34
-243 59 -315 20 -62 21 -70 7 -77 -56 -28 -301 -69 -340 -56 -26 8 -29 26 -20
145 13 182 53 313 124 407 45 61 142 146 155 138 5 -3 11 -23 15 -44z m605
-199 c23 -103 40 -277 40 -402 0 -85 0 -86 -30 -103 -24 -14 -31 -15 -35 -5
-8 22 -55 538 -55 605 0 34 3 70 7 79 10 28 49 -65 73 -174z m-350 135 c43 0
100 7 134 17 32 9 60 15 63 12 3 -3 3 -16 -1 -30 -14 -56 -165 -93 -265 -66
-47 12 -111 67 -111 94 0 14 7 13 53 -5 36 -15 75 -21 127 -22z m1341 -61 c48
-16 152 -32 184 -28 16 2 17 0 5 -8 -13 -8 -12 -10 3 -10 9 0 17 -5 17 -11 0
-6 -6 -9 -14 -6 -9 4 -21 -5 -31 -19 -15 -24 -21 -25 -66 -19 -27 4 -72 13
-99 20 l-50 13 0 -36 0 -35 -25 23 c-29 27 -31 49 -10 89 8 16 11 31 8 35 -11
11 32 6 78 -8z m-1146 -103 c3 -32 13 -113 21 -180 9 -67 16 -175 17 -239 l2
-118 -70 -18 c-106 -28 -192 -34 -238 -15 l-38 16 2 58 c1 32 7 83 14 113 18
75 36 207 43 315 l7 90 80 6 c44 4 91 12 105 17 44 19 48 15 55 -45z m1544 42
c17 3 32 2 36 -4 3 -6 27 -11 53 -11 55 -1 459 -54 467 -62 3 -3 -8 -59 -24
-124 -29 -111 -30 -112 -15 -8 5 35 2 45 -20 69 -19 21 -29 25 -39 17 -23 -19
-424 39 -443 64 -10 13 -12 13 -18 -1 -3 -10 -14 -14 -28 -11 -13 3 -40 8 -60
11 -32 5 -38 10 -38 30 0 26 5 28 53 27 18 0 25 3 20 11 -4 7 0 7 10 -1 10 -9
27 -11 46 -7z m-629 -40 c17 -9 30 -20 30 -25 0 -5 16 -16 35 -24 43 -18 52
-38 37 -81 -10 -26 -9 -38 3 -63 17 -34 7 -74 -18 -69 -8 1 -11 -10 -9 -34 3
-35 2 -36 -55 -61 -98 -43 -130 -51 -196 -44 l-62 6 -100 -71 c-340 -241 -574
-340 -810 -341 -131 -1 -207 20 -284 76 -60 45 -141 164 -141 209 0 8 35 19
93 29 50 9 99 19 108 22 11 5 23 -5 43 -36 98 -156 335 -140 691 46 145 75
335 202 335 223 0 9 7 43 16 75 19 66 79 142 129 164 41 18 120 17 155 -1z
m170 -345 c0 -5 -4 -10 -10 -10 -5 0 -10 5 -10 10 0 6 5 10 10 10 6 0 10 -4
10 -10z m921 -40 c5 0 9 6 10 13 0 8 2 9 5 0 3 -6 -11 -79 -30 -162 -33 -137
-86 -390 -86 -405 0 -8 -12 -7 -28 2 -10 7 -7 30 14 108 14 54 26 109 26 122
1 24 14 30 21 10 7 -22 29 117 24 150 -3 18 -2 32 3 32 13 0 20 29 8 36 -7 4
-8 3 -4 -4 4 -7 2 -12 -3 -12 -6 0 -11 7 -11 15 0 8 7 15 15 15 8 0 15 5 15
10 0 6 -4 10 -9 10 -11 0 -19 30 -14 48 3 6 9 10 13 7 5 -3 7 -12 4 -19 -3 -8
-1 -17 5 -21 7 -4 10 8 7 37 -2 24 -2 35 1 26 2 -10 9 -18 14 -18z m-934 1
c-9 -11 -9 -13 0 -8 6 4 13 2 15 -3 2 -6 28 -18 58 -25 30 -8 39 -12 20 -9
-19 3 -63 8 -98 11 l-63 6 22 23 c24 26 67 31 46 5z m-95 -122 c-15 -45 -29
-73 -31 -63 -2 11 -8 24 -13 31 -6 8 -6 18 1 30 9 16 10 15 11 -7 l1 -25 11
25 c6 14 12 28 12 32 1 3 4 10 9 14 4 4 7 14 7 23 0 14 -2 14 -10 1 -5 -8 -10
-10 -10 -4 0 14 10 24 26 24 9 0 4 -24 -14 -81z m261 64 c-7 -2 -19 -2 -25 0
-7 3 -2 5 12 5 14 0 19 -2 13 -5z m-1587 -17 c3 -8 4 -29 2 -48 l-3 -33 -22
42 c-17 30 -19 43 -10 46 21 9 27 7 33 -7z m1549 -17 c66 -11 121 -22 123 -23
2 -2 -11 -54 -29 -115 -28 -97 -35 -111 -51 -105 -10 3 -77 16 -149 29 -72 13
-133 26 -135 27 -1 2 13 46 32 98 19 52 37 101 40 109 3 8 12 11 27 7 12 -3
76 -15 142 -27z m108 24 c-7 -2 -19 -2 -25 0 -7 3 -2 5 12 5 14 0 19 -2 13 -5z
m-388 -13 c4 -6 1 -9 -6 -8 -7 2 -16 -8 -20 -22 -6 -21 -7 -22 -8 -4 -1 11 4
25 11 32 15 15 15 15 23 2z m-1612 -47 c4 -2 7 -12 7 -21 0 -64 105 -200 185
-243 32 -17 45 -30 45 -45 0 -12 -18 -104 -39 -205 -22 -101 -43 -205 -46
-231 -12 -84 -14 -84 -150 -43 -141 43 -259 95 -273 121 -7 14 -2 58 18 154
25 121 125 502 137 523 5 8 99 0 116 -10z m1267 -139 c-13 -63 -26 -114 -31
-114 -11 0 -99 131 -99 146 0 7 10 19 23 27 12 9 45 32 72 51 63 43 64 39 35
-110z m778 71 c-14 -31 -18 -28 -11 7 3 15 9 25 14 23 4 -3 3 -17 -3 -30z
m317 -35 c19 -5 6 -6 -35 -3 -36 3 -67 7 -69 9 -8 7 73 2 104 -6z m98 3 c-7
-2 -19 -2 -25 0 -7 3 -2 5 12 5 14 0 19 -2 13 -5z m-842 -30 c-12 -20 -14 -14
-5 12 4 9 9 14 11 11 3 -2 0 -13 -6 -23z m413 11 c3 -8 2 -12 -4 -9 -6 3 -10
10 -10 16 0 14 7 11 14 -7z m419 -1 c-7 -2 -21 -2 -30 0 -10 3 -4 5 12 5 17 0
24 -2 18 -5z m-1344 -67 c16 -30 50 -71 76 -91 45 -37 45 -39 39 -84 -5 -38
-2 -51 16 -73 24 -32 53 -41 210 -68 167 -30 164 -28 109 -84 -32 -32 -55 -46
-73 -46 -91 0 -272 82 -362 164 -78 70 -151 177 -160 233 l-6 41 53 31 c30 17
57 31 61 31 3 0 20 -24 37 -54z m1141 34 c0 -11 -2 -20 -4 -20 -2 0 -6 9 -9
20 -3 11 -1 20 4 20 5 0 9 -9 9 -20z m210 -9 c61 -10 113 -20 116 -23 3 -4 -8
-59 -25 -124 -17 -64 -31 -118 -31 -119 0 -4 -208 27 -277 41 l-21 4 24 87
c13 49 29 105 35 126 9 36 12 38 40 32 17 -4 79 -15 139 -24z m123 22 c-7 -2
-19 -2 -25 0 -7 3 -2 5 12 5 14 0 19 -2 13 -5z m-1027 -53 c8 0 14 -6 14 -12
0 -7 7 -3 15 8 14 21 16 21 97 7 83 -14 109 -23 71 -23 -28 0 -85 -25 -76 -33
3 -4 1 -7 -5 -7 -22 0 -12 -18 16 -29 25 -10 26 -11 2 -7 -14 2 -60 10 -102
17 -43 6 -78 15 -78 18 0 21 24 84 27 74 3 -7 11 -13 19 -13z m684 1 c0 -5 -5
-22 -12 -38 -6 -15 -10 -32 -9 -36 1 -5 -3 -6 -9 -2 -6 3 -8 11 -4 16 3 5 0
18 -8 27 -12 15 -11 16 5 3 18 -14 22 -7 18 27 -1 6 3 12 9 12 5 0 10 -4 10
-9z m-351 -37 c9 -8 -55 -2 -74 6 -13 6 -5 7 25 3 25 -3 47 -7 49 -9z m-985
-21 c11 -58 32 -401 27 -455 -1 -17 -48 -38 -85 -38 -21 0 -21 2 -19 242 l2
243 28 17 c37 24 40 23 47 -9z m1036 8 c0 -11 19 -9 40 3 8 5 12 5 7 1 -4 -5
1 -18 10 -29 18 -21 18 -21 -4 -2 l-23 19 0 -35 c0 -19 2 -37 5 -39 8 -9 75 3
69 12 -3 5 2 9 11 9 9 0 14 -4 11 -9 -11 -18 24 -34 61 -28 22 4 43 2 52 -6 9
-7 8 -2 -3 11 -17 20 -17 23 0 21 3 0 12 8 20 18 16 22 17 10 3 -39 -5 -21
-16 -38 -23 -38 -41 0 -105 14 -100 22 3 5 -5 6 -18 3 -12 -3 -66 3 -118 14
-75 15 -87 19 -55 21 52 2 70 10 72 35 1 11 0 14 -3 8 -3 -7 -18 -13 -32 -12
l-27 1 25 8 c18 6 20 8 7 9 -10 1 -16 5 -13 10 4 5 0 12 -6 14 -7 3 -3 6 10 6
12 1 22 -3 22 -8z m-1188 -151 c1 -55 2 -126 3 -157 l0 -57 -60 -13 c-75 -15
-440 -29 -447 -17 -3 5 5 50 18 99 13 50 29 117 34 150 l11 60 162 1 c118 1
174 5 207 17 72 24 70 28 72 -83z m1175 94 c-3 -3 -12 -4 -19 -1 -8 3 -5 6 6
6 11 1 17 -2 13 -5z m-100 -10 c-3 -3 -12 -4 -19 -1 -8 3 -5 6 6 6 11 1 17 -2
13 -5z m6 -311 c59 -14 107 -29 107 -33 0 -15 -154 -60 -204 -60 -76 0 -164
62 -141 100 22 35 69 34 238 -7z m-1093 -127 c0 -19 4 -46 10 -60 6 -17 6 -26
0 -26 -6 0 -10 7 -10 15 0 8 -3 15 -8 15 -4 0 -7 20 -7 45 0 25 3 45 8 45 4 0
7 -15 7 -34z m-43 18 c-3 -3 -12 -4 -19 -1 -8 3 -5 6 6 6 11 1 17 -2 13 -5z
m-137 -61 c-1 -45 -3 -54 -11 -40 -5 9 -7 22 -3 29 4 7 3 8 -4 4 -7 -4 -12 -1
-13 6 0 10 -2 11 -6 0 -4 -10 -8 -10 -19 -1 -8 6 -14 8 -14 3 0 -17 -20 21
-20 39 0 14 9 17 45 17 l45 0 0 -57z m54 12 c-1 -63 -14 -69 -14 -7 0 29 3 52
8 52 4 0 7 -20 6 -45z m19 20 c-3 -9 -8 -14 -10 -11 -3 3 -2 9 2 15 9 16 15
13 8 -4z m-823 -62 c0 -3 -9 -3 -20 0 -14 4 -24 -2 -32 -16 -6 -12 -10 -22 -9
-22 1 0 -2 -13 -8 -28 -6 -16 -11 -33 -11 -39 0 -6 -3 -9 -6 -6 -3 3 -1 23 4
44 6 22 13 51 16 66 6 25 8 26 36 16 17 -5 30 -12 30 -15z m30 -7 c0 -3 -4 -8
-10 -11 -5 -3 -10 -1 -10 4 0 6 5 11 10 11 6 0 10 -2 10 -4z m1045 -113 c36
-226 31 -720 -10 -943 l-14 -75 5 65 c12 138 15 170 23 310 9 144 7 414 -4
520 -16 153 -28 220 -38 213 -6 -3 -7 -1 -3 5 16 26 24 7 41 -95z m-650 68 c3
-5 2 -12 -3 -15 -5 -3 -9 1 -9 9 0 17 3 19 12 6z m-389 -48 c-11 -11 -19 6
-11 24 8 17 8 17 12 0 3 -10 2 -21 -1 -24z m771 0 c-3 -10 -5 -4 -5 12 0 17 2
24 5 18 2 -7 2 -21 0 -30z m-740 -80 c-2 -16 -4 -5 -4 22 0 28 2 40 4 28 2
-13 2 -35 0 -50z m733 53 c0 -2 -8 -10 -17 -17 -16 -13 -17 -12 -4 4 13 16 21
21 21 13z m-213 -48 c-3 -8 -6 -5 -6 6 -1 11 2 17 5 13 3 -3 4 -12 1 -19z m75
-38 c3 -16 1 -35 -4 -42 -4 -8 -8 4 -8 30 0 49 6 55 12 12z m-795 -112 c-3 -8
-6 -5 -6 6 -1 11 2 17 5 13 3 -3 4 -12 1 -19z m-10 -50 c-3 -8 -6 -5 -6 6 -1
11 2 17 5 13 3 -3 4 -12 1 -19z m770 -20 c-3 -8 -6 -5 -6 6 -1 11 2 17 5 13 3
-3 4 -12 1 -19z m-5 -55 c-5 -10 -19 -60 -32 -111 -12 -51 -24 -91 -27 -89 -7
8 49 217 59 217 5 0 5 -7 0 -17z m35 -125 c-3 -7 -5 -2 -5 12 0 14 2 19 5 13
2 -7 2 -19 0 -25z m10 -60 c-3 -8 -6 -5 -6 6 -1 11 2 17 5 13 3 -3 4 -12 1
-19z m-117 -73 c-16 -47 -23 -40 -8 8 6 20 13 35 16 33 2 -3 -1 -21 -8 -41z
m-60 -225 l-7 -75 -2 62 c-1 53 6 100 14 91 1 -2 -1 -37 -5 -78z m-89 33 c-12
-20 -14 -14 -5 12 4 9 9 14 11 11 3 -2 0 -13 -6 -23z m-413 -466 c79 -64 78
-79 -6 -130 -98 -59 -107 -59 -177 10 -102 100 -295 325 -295 345 0 10 18 52
40 92 l40 73 168 -169 c92 -93 195 -193 230 -221z m-251 358 c0 -8 -4 -12 -9
-9 -5 3 -6 10 -3 15 9 13 12 11 12 -6z m1000 -7 c-3 -8 -6 -5 -6 6 -1 11 2 17
5 13 3 -3 4 -12 1 -19z m-907 -93 c13 -14 21 -25 18 -25 -2 0 -15 11 -28 25
-13 14 -21 25 -18 25 2 0 15 -11 28 -25z m1217 -67 c-3 -8 -6 -5 -6 6 -1 11 2
17 5 13 3 -3 4 -12 1 -19z m-550 -60 c-2 -13 -4 -3 -4 22 0 25 2 35 4 23 2
-13 2 -33 0 -45z m-1117 -39 l-25 -70 50 -97 c59 -115 64 -165 26 -247 l-24
-50 -35 138 c-19 76 -36 136 -38 135 -2 -2 14 -89 36 -193 40 -199 82 -334 88
-284 3 25 7 27 67 34 79 8 105 1 105 -29 0 -45 -89 -143 -105 -116 -3 5 -14
10 -24 10 -20 0 -52 32 -74 75 -8 17 -41 132 -72 255 -32 124 -66 260 -77 302
-11 43 -18 88 -15 100 10 37 45 70 68 63 16 -5 20 -3 17 11 -3 17 40 49 51 38
3 -3 -6 -36 -19 -75z m1657 49 c-3 -8 -6 -5 -6 6 -1 11 2 17 5 13 3 -3 4 -12
1 -19z m-1555 -50 c1 5 12 0 23 -11 20 -20 20 -20 -1 -9 -12 6 -24 9 -26 6 -3
-2 -11 4 -19 13 -13 16 -12 17 3 5 9 -7 18 -9 20 -4z m1046 -159 c27 0 27 0 4
-10 -13 -5 -28 -7 -33 -3 -5 3 -8 35 -7 72 l2 67 3 -62 c4 -61 5 -63 31 -64z
m467 45 c-8 -27 -19 -55 -24 -63 -10 -16 -41 -8 -40 11 0 10 2 10 6 1 2 -7 9
-13 14 -13 6 0 8 4 4 9 -3 5 0 13 6 16 5 4 8 14 5 22 -3 8 -2 12 2 9 5 -3 14
11 21 30 19 52 23 35 6 -22z m-1551 -4 c-6 -5 -24 21 -24 34 0 6 6 1 14 -10 8
-10 12 -21 10 -24z m1309 -119 c137 -11 251 -21 253 -24 8 -8 -16 -81 -35
-105 -15 -19 -31 -22 -186 -32 -93 -5 -193 -12 -222 -14 -30 -3 -58 0 -68 7
-21 16 -34 150 -15 172 7 8 15 15 19 15 3 -1 118 -9 254 -19z m149 -254 c26
-15 35 -26 29 -35 -6 -10 -12 -6 -25 13 -16 25 -19 26 -36 10 -14 -12 -20 -13
-26 -4 -4 7 -3 10 4 5 6 -3 13 -2 16 3 9 14 -24 22 -68 16 -23 -3 -57 -1 -76
4 -29 7 -19 9 55 10 77 1 95 -2 127 -22z m-307 4 c-67 -6 -70 -7 -73 -33 -2
-17 4 -34 17 -47 25 -25 27 -33 6 -24 -18 6 -67 98 -58 107 4 3 45 5 92 4 l86
-2 -70 -5z m-865 -5 c0 -3 -4 -8 -10 -11 -5 -3 -10 -1 -10 4 0 6 5 11 10 11 6
0 10 -2 10 -4z m1048 -13 c-10 -2 -26 -2 -35 0 -10 3 -2 5 17 5 19 0 27 -2 18
-5z m-228 -13 c0 -5 -4 -10 -10 -10 -5 0 -10 5 -10 10 0 6 5 10 10 10 6 0 10
-4 10 -10z m-846 -25 c-4 -8 -8 -15 -10 -15 -2 0 -4 7 -4 15 0 8 4 15 10 15 5
0 7 -7 4 -15z m-225 -23 c13 -8 20 -9 16 -3 -4 7 4 7 21 -1 l27 -13 -42 -8
c-49 -10 -46 -11 -55 28 -4 17 -3 26 1 20 4 -5 19 -16 32 -23z m1001 -43 c46
-66 63 -78 91 -61 24 15 160 16 192 1 13 -6 31 -25 40 -43 14 -30 19 -33 96
-45 86 -13 110 -9 91 14 -17 21 -4 49 42 90 35 32 45 36 76 31 36 -5 92 -50
92 -73 0 -17 -24 -28 -97 -43 -43 -9 -63 -17 -63 -28 0 -14 35 -13 123 4 16 3
27 1 27 -5 0 -38 -138 -38 -479 -1 -205 21 -229 25 -273 42 -29 11 -38 42 -15
52 9 3 7 9 -5 19 -10 8 -18 24 -18 35 0 29 18 72 29 72 6 0 29 -27 51 -61z
m100 41 c0 -5 -2 -10 -4 -10 -3 0 -8 5 -11 10 -3 6 -1 10 4 10 6 0 11 -4 11
-10z m470 -5 c0 -12 -19 -12 -23 0 -4 9 -1 12 9 8 7 -3 14 -7 14 -8z m-280
-30 c0 -17 -2 -17 -10 -5 -7 10 -10 11 -10 2 0 -16 -68 -13 -74 4 -6 16 9 22
56 20 31 -1 38 -5 38 -21z m150 -105 c-6 -11 -13 -20 -16 -20 -2 0 0 9 6 20 6
11 13 20 16 20 2 0 0 -9 -6 -20z"/>
<path d="M3565 6270 c-4 -6 -19 -10 -33 -8 -21 2 -28 -2 -30 -19 -5 -34 39
-51 73 -29 28 18 32 38 11 55 -10 9 -16 9 -21 1z"/>
<path d="M3580 6049 c-17 -31 -8 -161 14 -193 18 -28 24 -30 44 -18 10 7 8 19
-9 58 -13 29 -23 73 -24 107 -2 66 -8 78 -25 46z"/>
<path d="M3361 5672 c-15 -28 -42 -171 -42 -227 -1 -62 15 -100 54 -129 l28
-21 44 24 c47 25 84 66 153 168 47 69 54 98 22 90 -11 -3 -35 -1 -53 4 -29 8
-52 21 -156 91 -33 22 -38 22 -50 0z m107 -86 c23 -14 59 -31 80 -38 20 -7 39
-13 41 -15 2 -1 -13 -24 -32 -51 -49 -66 -132 -142 -156 -142 -51 0 -65 94
-34 228 16 70 17 72 37 57 12 -8 40 -25 64 -39z"/>
<path d="M1671 1954 c0 -11 3 -14 6 -6 3 7 2 16 -1 19 -3 4 -6 -2 -5 -13z"/>
<path d="M610 7848 c-44 -71 -91 -180 -86 -195 4 -9 -1 -24 -10 -34 -9 -10
-17 -31 -18 -46 -1 -15 -10 -46 -20 -68 -38 -85 -46 -115 -36 -140 12 -33 47
-33 60 -1 5 13 14 27 19 31 6 3 11 16 11 28 0 13 7 33 16 45 8 12 12 26 9 32
-6 9 56 125 123 229 28 44 33 61 29 88 -12 71 -63 87 -97 31z"/>
<path d="M9361 7871 c-20 -13 28 -105 58 -109 30 -5 38 24 14 51 -11 12 -26
32 -32 45 -13 24 -19 26 -40 13z"/>
<path d="M9474 7664 c-8 -4 -6 -21 8 -57 12 -29 24 -62 29 -74 5 -14 17 -23
30 -23 19 0 21 4 16 34 -8 51 -44 126 -59 125 -7 0 -18 -3 -24 -5z"/>
<path d="M9557 7447 c-2 -6 0 -33 7 -60 8 -35 15 -47 29 -47 28 0 32 29 9 76
-22 44 -36 54 -45 31z"/>
<path d="M424 7262 c-10 -7 -34 -87 -38 -132 -2 -14 -6 -33 -10 -42 -11 -25 1
-50 21 -46 11 2 20 16 24 38 4 19 10 44 13 55 5 19 21 79 26 100 8 31 -10 45
-36 27z"/>
<path d="M9616 7262 c-3 -5 -3 -35 -1 -67 4 -60 19 -82 42 -63 12 10 11 47 -3
116 -4 22 -28 30 -38 14z"/>
<path d="M9638 7048 c0 -7 -2 -20 -3 -28 -1 -8 4 -24 11 -36 8 -13 9 -26 3
-35 -5 -8 -9 -35 -9 -61 0 -41 3 -48 20 -48 16 0 20 7 21 38 1 20 0 42 -1 47
-1 6 -3 35 -5 65 -2 30 -4 58 -4 63 -2 12 -31 8 -33 -5z"/>
<path d="M347 6928 c-2 -7 -5 -61 -6 -120 -2 -90 0 -108 13 -108 10 0 17 16
21 58 4 31 11 75 14 98 4 22 4 50 0 62 -9 24 -34 30 -42 10z"/>
<path d="M4633 6791 c-78 -20 -110 -76 -83 -142 10 -23 10 -36 1 -55 -15 -33
-14 -65 4 -88 12 -16 12 -21 0 -40 -20 -27 -19 -71 1 -101 14 -21 14 -30 4
-55 -15 -35 -6 -92 16 -111 9 -7 46 -18 83 -24 l66 -11 5 -66 c6 -82 27 -113
100 -150 97 -50 205 -33 279 45 31 33 33 39 29 86 -6 64 4 77 65 85 94 12 135
57 121 133 -5 25 -2 39 12 54 16 17 16 25 6 64 -10 37 -9 48 5 73 15 26 15 34
3 71 -12 39 -12 43 10 66 45 48 4 132 -76 154 -48 13 -607 24 -651 12z m625
-87 c7 -2 12 -14 10 -26 -3 -26 0 -26 -411 -18 -170 4 -231 8 -239 18 -14 16
-1 29 32 34 33 5 591 -2 608 -8z m-20 -150 c2 -12 -3 -24 -10 -26 -7 -3 -110
-2 -228 3 -118 4 -250 8 -292 8 -71 1 -78 3 -78 21 0 20 5 20 303 18 299 -3
302 -3 305 -24z m11 -124 c31 -17 -60 -22 -263 -16 -260 8 -356 16 -356 28 0
11 597 0 619 -12z m5 -120 c5 -5 6 -16 3 -24 -7 -19 -74 -20 -415 -9 -189 5
-212 8 -212 23 0 9 2 19 4 21 8 8 611 -3 620 -11z m-190 -271 c-46 -52 -151
-65 -218 -26 -50 28 -61 53 -20 43 68 -16 169 -17 209 -3 48 17 55 14 29 -14z"/>
<path d="M9638 6741 c-21 -29 -18 -135 3 -139 13 -2 19 11 27 69 6 40 9 76 6
81 -8 13 -22 9 -36 -11z"/>
<path d="M324 6536 c-3 -8 -2 -39 3 -68 7 -45 12 -53 32 -56 23 -4 23 -3 16
60 -4 34 -9 66 -12 71 -7 12 -33 8 -39 -7z"/>
<path d="M9607 6493 c-24 -47 -43 -163 -27 -163 14 0 30 34 51 109 23 79 23
81 4 81 -8 0 -21 -12 -28 -27z"/>
<path d="M363 6279 c-12 -12 -1 -85 15 -101 6 -6 18 -8 27 -4 18 7 16 31 -7
89 -11 29 -18 33 -35 16z"/>
<path d="M9542 6278 c-7 -7 -12 -16 -12 -20 0 -5 -9 -27 -19 -51 -52 -116 -61
-157 -36 -157 15 0 55 76 55 104 0 6 9 29 20 51 30 59 25 106 -8 73z"/>
<path d="M423 6061 c12 -61 35 -101 57 -101 19 0 21 4 15 33 -14 64 -33 97
-56 97 -18 0 -21 -4 -16 -29z"/>
<path d="M9347 5862 c-43 -88 -44 -92 -18 -92 23 0 31 10 70 85 33 63 34 85 4
85 -12 0 -30 -24 -56 -78z"/>
<path d="M530 5838 c1 -27 51 -131 65 -135 6 -1 17 1 25 7 11 7 12 14 3 32 -6
13 -21 44 -33 71 -15 32 -28 47 -41 47 -13 0 -19 -7 -19 -22z"/>
<path d="M9213 5626 c-37 -60 -39 -71 -19 -79 29 -12 105 96 84 120 -18 23
-32 14 -65 -41z"/>
<path d="M706 5601 c-16 -26 70 -129 98 -118 29 11 17 45 -30 86 -48 42 -59
47 -68 32z"/>
<path d="M9068 5418 c-59 -72 -70 -108 -34 -108 28 0 104 119 90 141 -10 16
-21 10 -56 -33z"/>
<path d="M900 5435 c-18 -22 -9 -39 49 -89 59 -50 85 -57 101 -27 8 17 5 23
-23 42 -17 13 -48 38 -67 56 -39 37 -43 39 -60 18z"/>
<path d="M1147 5284 c-42 -43 97 -108 278 -129 27 -4 52 -8 54 -11 2 -2 10 1
17 7 18 15 6 39 -19 39 -25 0 -83 18 -119 37 -16 8 -28 11 -28 7 0 -5 -5 -3
-12 4 -7 7 -20 12 -31 12 -14 0 -17 -5 -12 -20 5 -15 3 -18 -10 -14 -10 4 -13
13 -10 25 4 11 -1 21 -12 28 -27 14 -87 24 -96 15z"/>
<path d="M8897 5212 c-26 -26 -47 -53 -47 -59 0 -10 22 -23 39 -23 15 0 83
101 77 115 -9 23 -18 19 -69 -33z"/>
<path d="M8708 5004 c-61 -54 -72 -69 -64 -90 9 -23 28 -16 94 37 65 52 75 72
42 89 -16 9 -28 3 -72 -36z"/>
<path d="M8475 4885 c-14 -31 -43 -76 -66 -100 l-42 -45 37 0 c39 0 181 43
203 62 19 15 16 36 -6 43 -11 3 -32 26 -48 50 -15 25 -34 45 -41 45 -7 0 -24
-25 -37 -55z"/>
<path d="M6355 4001 c-53 -11 -109 -131 -62 -131 14 0 92 94 103 125 7 16 5
16 -41 6z"/>
<path d="M6167 3778 c-31 -42 -60 -98 -50 -98 5 0 15 5 23 10 13 9 13 10 0 10
-10 0 -11 3 -4 8 7 4 19 24 27 45 18 43 40 55 64 36 14 -12 16 -12 11 1 -9 29
-45 23 -71 -12z"/>
<path d="M6183 3725 c4 -5 0 -19 -9 -33 -9 -13 -11 -21 -5 -18 21 13 32 44 19
52 -7 4 -10 3 -5 -1z"/>
<path d="M5995 3491 c-3 -5 -2 -12 3 -15 5 -3 9 1 9 9 0 17 -3 19 -12 6z"/>
<path d="M7640 3488 c-84 -10 -186 -51 -201 -81 -7 -11 -8 -41 -4 -73 3 -30 4
-63 0 -74 -10 -33 -87 -78 -207 -121 -62 -22 -130 -51 -150 -64 -46 -30 -58
-31 -109 -5 -51 26 -61 55 -58 155 5 144 0 147 -242 153 -246 6 -260 -2 -274
-154 l-7 -71 -52 -22 c-29 -12 -68 -33 -86 -46 l-33 -24 -26 19 c-14 11 -48
39 -75 63 -45 41 -47 45 -35 66 17 27 6 36 -59 46 -47 7 -92 41 -92 70 0 9 -4
13 -10 10 -21 -13 -9 -52 25 -81 19 -16 35 -36 34 -44 0 -8 -28 -37 -61 -65
-162 -133 -268 -251 -268 -301 0 -5 30 -43 66 -84 73 -83 75 -91 36 -182 -21
-46 -21 -46 -79 -53 -154 -16 -176 -21 -183 -35 -23 -45 -39 -471 -21 -555 4
-20 16 -35 36 -44 27 -13 38 -12 114 8 46 12 85 20 88 18 3 -4 33 -170 33
-188 0 -3 -29 -35 -64 -72 -59 -63 -64 -66 -70 -45 -4 18 -39 39 -143 91 -76
37 -144 67 -151 67 -32 0 -374 190 -420 234 -60 56 -77 100 -77 201 0 109 18
150 106 237 67 68 149 110 257 133 40 8 82 20 92 25 10 6 45 43 78 83 83 101
91 107 152 111 85 6 95 52 20 94 -65 36 -86 28 -157 -65 -32 -43 -63 -87 -68
-98 -9 -16 -25 -21 -85 -27 -209 -21 -387 -135 -463 -295 -30 -64 -32 -75 -32
-178 1 -97 4 -118 28 -174 15 -35 26 -65 24 -66 -1 -1 -21 -11 -44 -23 -24
-12 -71 -42 -105 -67 l-63 -46 -23 27 c-13 14 -26 39 -29 55 -3 16 -10 32 -14
35 -5 3 -34 -4 -65 -15 -77 -29 -218 -53 -248 -42 -33 13 -55 107 -63 274 -7
154 -2 171 54 180 72 12 168 48 189 72 12 13 33 61 48 107 47 151 50 135 -43
232 -53 55 -80 90 -75 98 47 82 187 223 208 211 7 -4 36 -37 63 -72 67 -88
138 -126 160 -87 4 8 55 26 113 41 210 53 208 52 220 93 5 21 26 64 45 97 l36
60 -21 17 c-29 24 -44 15 -80 -48 -50 -89 -164 -153 -276 -156 -60 -2 -91 17
-180 109 -28 29 -59 53 -69 53 -60 0 -266 -189 -318 -291 -44 -87 -38 -105 75
-227 32 -34 58 -69 58 -78 0 -8 -9 -32 -20 -53 -15 -30 -34 -46 -79 -69 -53
-27 -68 -29 -120 -25 -69 7 -62 19 -82 -134 -18 -139 -7 -287 30 -413 41 -139
47 -144 167 -137 51 4 111 13 135 21 33 12 45 12 51 3 16 -25 7 -46 -25 -62
-19 -9 -75 -54 -125 -101 -78 -73 -94 -93 -108 -139 -15 -46 -16 -61 -5 -95
27 -90 95 -138 506 -353 127 -66 289 -153 361 -193 153 -86 193 -104 233 -104
48 0 57 18 64 127 8 124 29 245 68 386 38 138 57 170 128 214 31 20 68 46 82
60 l26 24 17 -44 c11 -29 35 -60 73 -93 32 -27 95 -84 140 -127 46 -42 95 -82
109 -87 37 -14 80 15 129 85 21 31 43 54 49 52 6 -2 43 -14 81 -27 39 -12 74
-26 79 -31 6 -5 9 -51 7 -103 -2 -83 0 -97 18 -115 30 -30 82 -41 227 -47 135
-7 215 3 260 33 22 14 44 93 44 162 0 67 8 78 73 104 34 14 66 23 72 21 5 -2
22 -26 38 -53 35 -63 89 -111 125 -111 42 0 107 47 201 144 46 47 91 86 100
86 9 0 55 -12 104 -26 100 -31 99 -28 67 -138 -23 -80 -19 -108 18 -132 31
-20 147 -41 282 -50 107 -8 170 6 270 56 83 42 84 44 69 148 -7 49 -10 96 -7
104 4 8 34 34 68 57 l62 41 38 -34 c87 -78 134 -94 196 -66 64 28 120 69 201
148 82 80 123 151 123 214 0 39 -5 47 -76 115 -86 82 -83 73 -53 211 11 51 12
54 38 48 117 -29 123 -29 150 -2 25 25 26 31 28 155 2 121 -1 155 -37 328 -8
37 -17 54 -31 58 -10 4 -22 4 -26 2 -5 -3 -41 -7 -82 -8 l-73 -4 -15 40 c-8
22 -34 80 -56 128 l-41 89 26 46 c29 53 31 126 4 166 -20 32 -109 106 -179
150 -62 40 -180 96 -201 96 -7 0 -41 -36 -76 -80 -35 -44 -66 -80 -70 -80 -4
0 -50 20 -102 44 l-94 44 -10 97 c-14 128 -16 130 -147 131 -56 0 -136 -3
-177 -8z m200 -118 c11 -6 21 -25 25 -48 14 -89 28 -148 39 -154 6 -4 33 -8
59 -8 47 0 90 -18 213 -92 l32 -18 59 73 59 74 74 -39 c79 -42 126 -74 177
-121 l31 -29 -24 -47 c-47 -89 -45 -103 35 -257 40 -76 79 -146 87 -155 10
-11 40 -20 84 -24 l69 -7 10 -51 c5 -29 11 -94 13 -146 3 -94 3 -95 -22 -102
-14 -4 -52 -8 -85 -8 -33 -1 -65 -5 -71 -9 -6 -4 -19 -43 -29 -87 -9 -44 -29
-116 -43 -159 l-26 -79 40 -35 c148 -133 155 -141 143 -164 -33 -61 -165 -178
-201 -178 -11 0 -50 20 -87 44 -112 72 -108 71 -149 43 -20 -13 -68 -41 -107
-62 -117 -63 -118 -64 -91 -187 25 -121 25 -124 -36 -142 -85 -24 -179 -30
-282 -16 -136 18 -133 13 -110 149 13 81 15 117 8 129 -6 9 -40 27 -75 40 -35
12 -90 34 -121 49 -66 31 -73 49 -35 101 31 41 143 141 171 152 12 4 78 6 147
3 94 -4 141 -1 193 11 186 44 321 182 361 371 19 90 19 138 -1 221 -27 120
-83 220 -166 300 -120 117 -238 164 -408 164 -93 0 -186 -22 -214 -50 -20 -20
-34 -10 -40 28 -4 28 -23 58 -69 111 -35 39 -73 79 -85 87 -12 8 -22 21 -22
27 0 7 40 27 90 46 49 18 95 40 101 47 9 11 10 37 3 100 -7 58 -6 88 1 94 22
18 245 26 275 10z m-1041 -117 l33 -14 -7 -100 c-8 -113 -3 -125 54 -135 20
-3 74 -24 120 -45 46 -22 90 -39 97 -39 7 0 35 19 62 43 103 89 78 92 202 -30
61 -60 110 -114 110 -121 0 -7 -31 -46 -70 -87 -38 -41 -70 -80 -70 -88 0 -7
8 -31 19 -53 30 -65 61 -162 55 -177 -3 -8 8 -26 26 -41 24 -20 43 -26 78 -26
26 0 52 -4 58 -8 37 -24 43 -277 8 -312 -14 -14 -53 -16 -158 -7 -27 2 -32 -3
-54 -58 -14 -33 -40 -97 -59 -141 l-34 -82 56 -81 c42 -63 53 -86 46 -99 -5
-9 -49 -59 -98 -110 l-88 -94 -37 29 c-20 15 -60 47 -88 70 l-51 43 -42 -22
c-23 -12 -82 -35 -132 -52 l-90 -31 -5 -107 c-3 -58 -9 -110 -13 -114 -10 -10
-201 -10 -280 0 l-57 7 0 119 0 119 -57 16 c-32 9 -94 33 -137 53 l-79 36 -21
-29 c-12 -16 -45 -54 -74 -85 -50 -53 -53 -54 -67 -36 -8 11 -15 30 -15 43 0
14 -5 21 -13 17 -15 -5 -157 138 -157 159 0 6 31 47 70 89 l69 78 -28 62 c-16
35 -41 98 -56 141 -30 87 -19 81 -156 77 l-66 -2 -6 69 c-4 37 -7 118 -7 180
l0 112 96 3 96 3 48 127 c72 194 72 197 -7 292 -18 22 -33 48 -33 58 0 19 154
180 206 216 l32 22 28 -33 c16 -19 44 -55 61 -80 23 -33 39 -47 56 -47 12 0
65 20 115 45 51 25 97 43 102 40 5 -3 11 -1 15 5 3 5 24 10 45 10 43 0 42 -3
60 129 6 41 13 77 15 80 10 9 140 18 190 13 28 -3 65 -11 84 -19z m1092 -488
c52 -6 151 -51 212 -95 23 -16 57 -52 76 -80 19 -27 38 -50 42 -50 15 0 59
-113 70 -179 29 -185 -53 -360 -200 -423 -101 -43 -270 -44 -344 0 l-31 17 -1
170 c-2 202 -15 278 -52 302 -14 9 -55 20 -90 25 -36 4 -71 12 -79 18 -7 6
-20 44 -29 83 l-16 71 30 27 c53 46 193 111 257 118 33 4 70 6 84 5 14 -2 46
-6 71 -9z m-2958 -881 c39 -20 86 -46 102 -59 40 -29 143 -82 178 -91 15 -3
31 -12 35 -20 4 -7 34 -20 67 -29 33 -8 71 -23 85 -33 14 -10 44 -29 68 -42
23 -13 42 -27 42 -32 0 -14 -81 -49 -149 -64 -132 -28 -269 -15 -430 41 -41
14 -77 23 -79 20 -12 -12 26 -36 116 -73 114 -47 240 -75 318 -70 45 2 54 0
50 -12 -2 -8 -14 -42 -26 -75 -33 -91 -68 -255 -82 -388 l-12 -119 -26 5 c-23
5 -210 102 -665 344 -190 102 -290 164 -304 192 -15 28 -14 77 3 110 8 15 48
53 88 84 40 31 100 80 133 107 118 99 354 237 408 240 4 0 40 -16 80 -36z"/>
<path d="M6510 2760 c-218 -40 -404 -216 -455 -431 -23 -101 -20 -223 10 -316
32 -101 76 -169 148 -232 76 -67 126 -95 217 -121 195 -58 382 -7 535 144 120
117 172 259 162 438 -9 151 -69 282 -174 380 -113 104 -304 164 -443 138z
m225 -140 c68 -31 168 -103 210 -152 38 -45 80 -147 90 -218 9 -65 -11 -195
-41 -259 -69 -153 -276 -274 -438 -257 -103 11 -172 42 -247 113 -97 92 -139
198 -139 354 0 143 38 236 133 327 59 55 96 77 177 104 74 24 186 19 255 -12z"/>
<path d="M4484 1656 c-9 -24 24 -74 109 -163 155 -162 339 -278 428 -271 29 2
44 8 44 17 0 7 -40 35 -89 61 -115 61 -188 115 -305 224 -121 112 -179 153
-187 132z"/>
<path d="M448 591 c-26 -14 -48 -28 -48 -31 0 -3 20 -16 45 -29 40 -21 105
-97 105 -123 0 -17 19 -7 26 15 3 12 12 29 19 37 17 21 15 50 -3 42 -10 -3
-13 -1 -8 6 7 12 -41 68 -56 64 -6 -2 -8 4 -4 13 3 9 2 13 -3 10 -6 -3 -13 1
-18 9 -7 11 -17 9 -55 -13z"/>
</g>
</svg>
